<svg width="77" height="76" viewBox="0 0 77 76" fill="none" xmlns="http://www.w3.org/2000/svg">
<path d="M22.6259 46.2815C23.7502 45.722 25.0995 46.1399 25.6979 47.2328L29.9448 54.9893C30.2721 55.5869 30.9691 55.8886 31.6367 55.7225C32.3043 55.5561 32.772 54.9636 32.772 54.2844V42.9588C32.7719 42.1397 32.0986 41.4756 31.268 41.4756C30.4374 41.4756 29.7641 42.1398 29.7641 42.9589V48.4162L28.3444 45.8233C26.9665 43.3071 23.8593 42.3445 21.271 43.633C19.0559 44.7353 17.9152 47.1665 18.4971 49.5454L21.2503 60.8012C21.8938 63.4324 23.0411 65.8746 24.6602 68.06L30.0539 75.3399C30.3483 75.7375 30.8057 75.9482 31.2693 75.9482C31.5772 75.9482 31.8879 75.8552 32.1554 75.6624C32.826 75.179 32.9725 74.2508 32.4824 73.5894L27.0888 66.3095C25.7049 64.4417 24.7243 62.3544 24.1743 60.1055L21.4211 48.8495C21.1683 47.8162 21.6639 46.7603 22.6259 46.2815Z" fill="black"/>
<path d="M56.5809 39.9591C55.6934 39.9591 54.858 40.1832 54.1295 40.5768C53.3915 38.6807 51.5274 37.3307 49.3484 37.3307C48.4086 37.3307 47.5279 37.5829 46.7701 38.0205C45.9601 36.2823 44.1793 35.0715 42.1161 35.0715C41.3631 35.0715 40.6483 35.234 40.0039 35.5231V28.431C40.0039 25.6464 37.7071 23.3809 34.8838 23.3809C32.0605 23.3809 29.7637 25.6463 29.7637 28.431V31.0022C29.7637 31.8213 30.437 32.4856 31.2676 32.4856C32.0983 32.4856 32.7716 31.8213 32.7716 31.0022V28.4311C32.7716 27.2824 33.7192 26.3477 34.8838 26.3477C36.0484 26.3477 36.996 27.2824 36.996 28.4311V49.3624C36.996 50.1815 37.6693 50.8458 38.5 50.8458C39.3306 50.8458 40.0039 50.1815 40.0039 49.3624V40.1215C40.0039 38.9728 40.9513 38.0381 42.1161 38.0381C43.2809 38.0381 44.2284 38.9728 44.2284 40.1215V49.3624C44.2284 50.1815 44.9017 50.8458 45.7323 50.8458C46.5629 50.8458 47.2362 50.1815 47.2362 49.3624V42.3808C47.2362 41.232 48.1836 40.2973 49.3484 40.2973C50.5132 40.2973 51.4607 41.232 51.4607 42.3808V49.3624C51.4607 50.1815 52.134 50.8458 52.9646 50.8458C53.7952 50.8458 54.4685 50.1815 54.4685 49.3624V45.0089C54.4685 43.8602 55.4161 42.9255 56.5807 42.9255C57.7454 42.9255 58.693 43.8602 58.693 45.0089V57.5254C58.693 60.8606 58.1798 64.1655 57.168 67.3479L55.0466 74.0204C54.7982 74.8021 55.2391 75.6346 56.0317 75.8796C56.1814 75.926 56.3329 75.948 56.4821 75.948C57.1218 75.9478 57.7151 75.542 57.9167 74.908L60.0381 68.2355C61.1413 64.7654 61.7008 61.1618 61.7008 57.5254V45.0089C61.701 42.2246 59.4042 39.9591 56.5809 39.9591Z" fill="black"/>
<path d="M76.874 7.86614C76.5739 6.9555 75.7905 6.30445 74.8296 6.16694L70.2233 5.50818L68.1622 1.39154C67.7325 0.533121 66.8626 0 65.8922 0C65.892 0 65.8917 0 65.8916 0C64.9206 0.000148337 64.0508 0.533863 63.6214 1.39273L61.5626 5.51026L56.9565 6.17169C55.9958 6.30964 55.2127 6.96114 54.9132 7.87207C54.6134 8.78286 54.8593 9.76366 55.5546 10.4318L58.8886 13.6355L58.103 18.1607C57.9392 19.1046 58.3254 20.0404 59.1109 20.6029C59.5545 20.9208 60.0735 21.082 60.596 21.082C60.9986 21.082 61.4033 20.9862 61.7772 20.7923L65.8965 18.6548L70.0171 20.7903C70.8764 21.2359 71.8982 21.1626 72.6834 20.5993C73.4686 20.0363 73.8543 19.1004 73.6898 18.1565L72.9017 13.6318L76.234 10.4264C76.9289 9.75772 77.1742 8.77663 76.874 7.86614ZM70.6227 11.6802C70.0258 12.2541 69.7539 13.0806 69.8951 13.8908L70.5623 17.7213L67.0741 15.9137C66.3361 15.531 65.4551 15.5314 64.7175 15.9141L61.2302 17.7237L61.8954 13.8926C62.0358 13.0824 61.7635 12.2563 61.1664 11.6825L58.3439 8.97035L62.2435 8.41053C63.0681 8.29201 63.7807 7.78114 64.1493 7.04376L65.8923 3.55815L67.6372 7.04272C68.0062 7.77995 68.7189 8.29038 69.544 8.4086L73.4436 8.9665L70.6227 11.6802Z" fill="black"/>
<path d="M49.4802 7.8661C49.18 6.95547 48.3968 6.30427 47.4359 6.16692L42.8296 5.50816L40.7685 1.39154C40.3387 0.533119 39.469 0 38.4983 0C38.4982 0 38.4979 0 38.4976 0C37.5268 0.000148336 36.657 0.533861 36.2276 1.39273L34.1687 5.51023L29.5627 6.17166C28.602 6.30961 27.8189 6.96111 27.5194 7.87204C27.2196 8.78282 27.4655 9.76361 28.1608 10.4317L31.4946 13.6353L30.709 18.1605C30.5452 19.1043 30.9314 20.0402 31.7169 20.6027C32.1606 20.9205 32.6796 21.0818 33.202 21.0818C33.6046 21.0818 34.0093 20.986 34.3832 20.7921L38.5027 18.6547L42.6233 20.79C43.4826 21.2356 44.5043 21.1623 45.2895 20.5991C46.0747 20.036 46.4605 19.1002 46.2959 18.1563L45.5079 13.6316L48.8401 10.4262C49.5351 9.75768 49.7804 8.77674 49.4802 7.8661ZM43.229 11.6801C42.6323 12.2539 42.3604 13.0803 42.5014 13.8908L43.1686 17.7212L39.6804 15.9136C38.9423 15.5311 38.0611 15.5312 37.3238 15.9141L33.8364 17.7236L34.5016 13.8925C34.642 13.0822 34.3697 12.2561 33.7726 11.6825L30.9502 8.97031L34.8497 8.41049C35.6743 8.29198 36.3868 7.78111 36.7556 7.04373L38.4986 3.55798L40.2435 7.04269C40.6124 7.77977 41.3251 8.29034 42.1503 8.40857L46.0499 8.96646L43.229 11.6801Z" fill="black"/>
<path d="M22.0864 7.86614C21.7863 6.9555 21.0029 6.30445 20.042 6.16694L15.4357 5.50818L13.3747 1.39154C12.9449 0.533121 12.0752 0 11.1046 0C11.1044 0 11.1041 0 11.1038 0C10.1331 0.000148337 9.26321 0.533863 8.83384 1.39273L6.77499 5.51026L2.16897 6.17169C1.20828 6.30964 0.425344 6.96114 0.125615 7.87192C-0.174114 8.78271 0.0714743 9.76351 0.766881 10.4318L4.10089 13.6355L3.31525 18.1607C3.15148 19.1046 3.53768 20.0404 4.32317 20.6031C4.76698 20.9208 5.28582 21.0822 5.80843 21.082C6.21103 21.082 6.61573 20.9862 6.9896 20.7923L11.1091 18.6549L15.2297 20.7903C16.0891 21.2356 17.1108 21.1624 17.8959 20.5995C18.6811 20.0363 19.0667 19.1001 18.9024 18.1564L18.1143 13.6317L21.4465 10.4263C22.1413 9.75772 22.3866 8.77677 22.0864 7.86614ZM15.8353 11.68C15.2384 12.2538 14.9663 13.0803 15.1075 13.8908L15.7747 17.7213L12.2867 15.9137C11.5487 15.5311 10.6676 15.5313 9.93004 15.9141L6.44248 17.7238L7.10751 13.893C7.24827 13.0828 6.97592 12.2566 6.37871 11.6827L3.55648 8.97035L7.45596 8.41053C8.28056 8.29201 8.99311 7.78114 9.36172 7.04376L11.1047 3.558L12.8496 7.04272C13.2185 7.77981 13.9312 8.29038 14.7564 8.4086L18.6562 8.9665L15.8353 11.68Z" fill="black"/>
<path d="M32.3312 36.0648C32.0515 35.7887 31.6636 35.6301 31.2679 35.6301C30.8724 35.6301 30.4844 35.7887 30.2047 36.0648C29.925 36.3409 29.764 36.7233 29.764 37.1136C29.764 37.5038 29.925 37.8866 30.2047 38.1623C30.4844 38.4383 30.8724 38.5972 31.2679 38.5972C31.6635 38.5972 32.0515 38.4384 32.3312 38.1623C32.6109 37.8866 32.7719 37.5038 32.7719 37.1136C32.7719 36.7232 32.6109 36.3406 32.3312 36.0648Z" fill="black"/>
</svg>
