<svg width="77" height="77" viewBox="0 0 77 77" fill="none" xmlns="http://www.w3.org/2000/svg">
<g clip-path="url(#clip0)">
<path d="M76.9175 57.5548L75.4865 50.298C74.9116 47.3819 73.4951 44.731 71.3903 42.632L68.8776 40.1265V31.587C70.448 30.9663 71.5624 29.4343 71.5624 27.6458C71.5624 27.1631 71.4801 26.6993 71.3306 26.2666C73.1099 25.7643 74.418 24.1273 74.418 22.1895C74.418 21.6777 74.3267 21.1869 74.1596 20.7322C75.8111 20.1534 76.999 18.5799 76.999 16.7334C76.999 14.8867 75.8111 13.3133 74.1596 12.7345C74.3267 12.2798 74.418 11.789 74.418 11.2772C74.418 8.94086 72.5172 7.04038 70.1812 7.04038H61.69C62.4695 6.09878 62.8444 4.8355 62.6181 3.55222C62.4159 2.40564 61.7757 1.41186 60.8153 0.753749C59.8551 0.0956396 58.6969 -0.14273 57.5552 0.0825556L50.2982 1.51352C47.382 2.08862 44.7312 3.50515 42.6323 5.60986L40.1268 8.12259H31.5874C30.9667 6.55221 29.4347 5.43782 27.6464 5.43782C27.1636 5.43782 26.6998 5.52008 26.2671 5.66957C25.7648 3.8903 24.1278 2.5822 22.1902 2.5822C21.6784 2.5822 21.1875 2.67349 20.7329 2.84057C20.1541 1.18913 18.5805 0.0011943 16.734 0.0011943C14.8874 0.0011943 13.314 1.18928 12.7351 2.84072C12.2805 2.67364 11.7896 2.58235 11.2779 2.58235C8.94169 2.58235 7.04105 4.48299 7.04105 6.81915V15.3104C6.09961 14.531 4.83663 14.1563 3.55289 14.3824C2.40631 14.5846 1.41253 15.2248 0.754424 16.1852C0.0963145 17.1454 -0.142055 18.3034 0.0830801 19.4455L1.51435 26.7023C2.08944 29.6185 3.50597 32.2693 5.61054 34.3682L8.12311 36.8737V45.413C6.55258 46.0337 5.43804 47.5658 5.43804 49.3541C5.43804 49.837 5.5203 50.3007 5.66979 50.7335C3.89052 51.2358 2.58242 52.8727 2.58242 54.8105C2.58242 55.3224 2.67371 55.8133 2.84079 56.2679C1.1892 56.8467 0.001418 58.4203 0.001418 60.2668C0.001418 62.1134 1.18935 63.6868 2.84079 64.2655C2.67371 64.7201 2.58242 65.2112 2.58242 65.7229C2.58242 68.0591 4.48321 69.9598 6.81923 69.9598H15.3104C14.5311 70.9013 14.1562 72.1645 14.3825 73.4478C14.5846 74.5943 15.2249 75.5881 16.1851 76.2461C16.9094 76.7425 17.7462 77.0001 18.6038 77.0001C18.8831 77.0001 19.1648 76.9726 19.4456 76.9174L26.7025 75.4863C29.6184 74.9114 32.2694 73.4948 34.3684 71.3901L36.8739 68.8774H45.4134C46.034 70.4479 47.5661 71.5625 49.3545 71.5625C49.8373 71.5625 50.3011 71.4802 50.7337 71.3307C51.2362 73.11 52.8732 74.4179 54.8107 74.4179C55.3225 74.4179 55.8135 74.3266 56.2681 74.1596C56.8468 75.8112 58.4204 76.9989 60.2668 76.9989C62.1135 76.9989 63.687 75.811 64.2657 74.1596C64.7204 74.3266 65.2114 74.4179 65.7232 74.4179C68.0593 74.4179 69.9598 72.5171 69.9598 70.1811V61.6902C70.9014 62.4694 72.1641 62.8445 73.448 62.618C74.5946 62.4159 75.5883 61.7756 76.2463 60.8154C76.9043 59.8552 77.1428 58.697 76.9175 57.5548ZM31.8836 19.8251V15.7257V11.1303H40.7513C41.1508 11.1303 41.534 10.9711 41.8162 10.6883L44.7623 7.73383C46.4375 6.05412 48.5528 4.92348 50.8802 4.46464L58.1372 3.03367C58.4801 2.9663 58.8273 3.03758 59.1155 3.23504C59.4036 3.43251 59.5957 3.73073 59.6563 4.07467C59.7739 4.74136 59.351 5.38969 58.6938 5.55091L55.678 6.29038C54.7268 6.52349 54.1214 7.39846 54.2389 8.37073C54.3563 9.34301 55.1524 10.0488 56.1319 10.0488H70.1817C70.8595 10.0488 71.4108 10.6003 71.4108 11.2779C71.4108 11.906 70.9372 12.4245 70.3284 12.4973L62.0049 12.5069C61.1745 12.5069 60.501 13.1802 60.501 14.0108C60.501 14.8414 61.1745 15.5147 62.0049 15.5147L72.7628 15.5051C73.4406 15.5051 73.992 16.0566 73.992 16.7343C73.992 17.4119 73.4406 17.9634 72.7628 17.9634H62.0049C61.1745 17.9634 60.501 18.6367 60.501 19.4673C60.501 20.2979 61.1745 20.9712 62.0049 20.9712H70.329C70.9375 21.0443 71.4108 21.5628 71.4108 22.1906C71.4108 22.8682 70.8595 23.4197 70.1817 23.4197H62.0049C61.1745 23.4197 60.501 24.093 60.501 24.9236C60.501 25.7542 61.1745 26.4275 62.0049 26.4275H67.473C68.0814 26.5005 68.5552 27.019 68.5552 27.6471C68.5552 28.3247 68.0038 28.876 67.3262 28.876H52.1385C48.9569 28.876 45.9673 27.6353 43.7207 25.3823L41.8165 23.4727C41.5343 23.1898 41.1511 23.0307 40.7516 23.0307H31.8836V19.8251ZM7.7342 32.2379C6.05434 30.5628 4.92385 28.4474 4.46516 26.12L3.03405 18.8632C2.96637 18.5204 3.03796 18.173 3.23542 17.8849C3.43288 17.5967 3.73111 17.4047 4.07505 17.3441C4.74248 17.2268 5.38991 17.6494 5.55113 18.3067L6.29045 21.3222C6.52341 22.2736 7.39898 22.8779 8.37066 22.7615C9.34308 22.6442 10.0489 21.848 10.0489 20.8686V6.81885C10.0489 6.14119 10.6002 5.58971 11.278 5.58971C11.9059 5.58971 12.4243 6.06314 12.4974 6.67162L12.507 14.9956C12.507 15.8262 13.1804 16.4995 14.0109 16.4995C14.8414 16.4995 15.5148 15.8262 15.5148 14.9956V6.81885C15.5148 6.72726 15.5109 6.63673 15.5052 6.54649V4.2377C15.5052 3.56004 16.0565 3.00871 16.7343 3.00871C17.4121 3.00871 17.9635 3.56004 17.9635 4.2377V6.54665C17.9578 6.63673 17.9538 6.72742 17.9538 6.819L17.9635 14.9957C17.9635 15.8263 18.6369 16.4996 19.4674 16.4996C20.2978 16.4996 20.9713 15.8263 20.9713 14.9957V6.67162C21.0444 6.06314 21.5629 5.58971 22.1907 5.58971C22.8685 5.58971 23.4198 6.14119 23.4198 6.81885C23.4198 6.81885 23.4138 14.1351 23.4198 14.1898V14.9957C23.4198 15.8263 24.0932 16.4996 24.9237 16.4996C25.7542 16.4996 26.4276 15.8263 26.4276 14.9957V9.52724C26.5007 8.91876 27.0192 8.44533 27.647 8.44533C28.3248 8.44533 28.8761 8.99681 28.8761 9.67447V24.862C28.8761 27.9975 27.6026 31.0657 25.3825 33.2798L23.4729 35.184C23.1898 35.4662 23.0309 35.8494 23.0309 36.2489V45.1167H20.0232V41.1237C20.0232 40.2932 19.3498 39.6198 18.5193 39.6198C17.6889 39.6198 17.0154 40.2932 17.0154 41.1237V45.1167H11.1308V36.2489C11.1308 35.8494 10.9717 35.4662 10.6888 35.184L7.7342 32.2379ZM45.1175 65.8693H36.2495V65.8694C35.8499 65.8694 35.4667 66.0285 35.1846 66.3113L32.2384 69.2657C30.5632 70.9457 28.4478 72.0762 26.1205 72.5347L18.8636 73.9659C18.5207 74.0337 18.1734 73.9621 17.8853 73.7645C17.5971 73.5669 17.4051 73.2688 17.3445 72.9249C17.2269 72.2583 17.6498 71.61 18.307 71.4489L21.323 70.7094C22.2741 70.4762 22.8793 69.6014 22.7617 68.6291C22.6444 67.6568 21.8482 66.9512 20.8689 66.9512H6.81938C6.14157 66.9512 5.59023 66.3999 5.59023 65.722C5.59023 65.0939 6.06412 64.5752 6.67305 64.5025L14.9963 64.4931C15.8267 64.4931 16.5002 63.8196 16.5002 62.9892C16.5002 62.1587 15.8267 61.4852 14.9963 61.4852L4.23837 61.4947C3.56056 61.4947 3.00923 60.9434 3.00923 60.2656C3.00923 59.5879 3.56056 59.0366 4.23837 59.0366H14.9963C15.8267 59.0366 16.5002 58.3631 16.5002 57.5327C16.5002 56.7022 15.8267 56.0288 14.9963 56.0288H6.67305C6.06412 55.9561 5.59023 55.4374 5.59023 54.8092C5.59023 54.1316 6.14157 53.5803 6.81938 53.5803H14.9963C15.8267 53.5803 16.5002 52.9068 16.5002 52.0764C16.5002 51.2459 15.8267 50.5724 14.9963 50.5724H9.52866C8.91988 50.4998 8.446 49.9811 8.446 49.3529C8.446 48.6751 8.99733 48.1238 9.67499 48.1238H24.8625C28.044 48.1238 31.0336 49.3647 33.2803 51.6175L35.1846 53.5272C35.4667 53.8102 35.8499 53.9692 36.2495 53.9692H45.1175V65.8693ZM45.1634 50.9624H36.8736L35.4101 49.4948C32.8735 46.9509 29.5813 45.4375 26.0381 45.1629V36.8731L27.5058 35.4096C30.0096 32.9128 31.5517 29.5492 31.8354 26.0374H40.1273L41.5907 27.5051C44.1274 30.0489 47.4197 31.5622 50.9629 31.8369V40.1269L49.4953 41.5904C46.9514 44.1267 45.438 47.4192 45.1634 50.9624ZM73.7652 59.1148C73.5677 59.4029 73.2695 59.595 72.9254 59.6557C72.2581 59.7739 71.6105 59.3504 71.4496 58.6931L70.7101 55.6772C70.4769 54.7258 69.6004 54.1217 68.6296 54.2384C67.6573 54.3558 66.9517 55.1518 66.9517 56.1312V70.181C66.9517 70.8588 66.4004 71.4101 65.7227 71.4101C65.0945 71.4101 64.5758 70.9362 64.5032 70.3273L64.4937 62.0042C64.4937 61.1738 63.8203 60.5003 62.9898 60.5003C62.1594 60.5003 61.4859 61.1738 61.4859 62.0042L61.4954 72.7623C61.4954 73.4399 60.9441 73.9913 60.2662 73.9913C59.5886 73.9913 59.0373 73.4399 59.0373 72.7623V62.0042C59.0373 61.1738 58.3638 60.5003 57.5334 60.5003C56.7029 60.5003 56.0294 61.1738 56.0294 62.0042V70.3273C55.9568 70.9362 55.4381 71.4101 54.8099 71.4101C54.1321 71.4101 53.5808 70.8588 53.5808 70.181V62.0042C53.5808 61.1738 52.9073 60.5003 52.0769 60.5003C51.2464 60.5003 50.573 61.1738 50.573 62.0042V67.4727C50.4999 68.0812 49.9813 68.5547 49.3536 68.5547C48.6758 68.5547 48.1245 68.0033 48.1245 67.3255V61.2747V57.1753V52.138C48.1245 48.9565 49.3653 45.9669 51.6182 43.72L53.5278 41.8158C53.8109 41.5337 53.9698 41.1505 53.9698 40.7509V31.883H57.1747H59.7704V36.4448C59.7704 37.2754 60.4439 37.9487 61.2743 37.9487C62.1048 37.9487 62.7782 37.2754 62.7782 36.4448V31.883H65.8693V40.7509C65.8693 41.1505 66.0285 41.5337 66.3112 41.8158L69.2656 44.762C70.9456 46.4372 72.0761 48.5526 72.5347 50.88L73.9658 58.1368C74.0342 58.4794 73.9628 58.8268 73.7652 59.1148Z" fill="black"/>
<path d="M62.3377 41.0386C62.058 40.7587 61.6698 40.598 61.2744 40.598C60.8789 40.598 60.4909 40.7587 60.2113 41.0386C59.9316 41.3183 59.7705 41.7062 59.7705 42.1034C59.7705 42.4989 59.9314 42.8869 60.2113 43.1666C60.4909 43.4462 60.8789 43.6058 61.2744 43.6058C61.6699 43.6058 62.058 43.4462 62.3377 43.1666C62.6174 42.8854 62.7783 42.4989 62.7783 42.1034C62.7783 41.7078 62.6176 41.3198 62.3377 41.0386Z" fill="black"/>
<path d="M19.5813 34.4035C19.3015 34.1223 18.9135 33.9629 18.518 33.9629C18.1225 33.9629 17.7345 34.1223 17.4547 34.4035C17.1752 34.6833 17.0141 35.0698 17.0141 35.4668C17.0141 35.8623 17.175 36.2503 17.4547 36.5301C17.7345 36.8098 18.1225 36.9707 18.518 36.9707C18.9135 36.9707 19.3015 36.8098 19.5813 36.5301C19.8608 36.2503 20.0219 35.8623 20.0219 35.4668C20.0219 35.0698 19.861 34.6833 19.5813 34.4035Z" fill="black"/>
</g>
<defs>
<clipPath id="clip0">
<rect width="77" height="77" fill="white"/>
</clipPath>
</defs>
</svg>
