<svg width="77" height="77" viewBox="0 0 77 77" fill="none" xmlns="http://www.w3.org/2000/svg">
<g clip-path="url(#clip0)">
<path d="M32.1004 5.14844C17.2219 5.14844 5.16058 17.2098 5.16058 32.0882C5.16058 46.9667 17.2219 59.028 32.1004 59.028C46.9788 59.028 59.0402 46.9667 59.0402 32.0882C59.024 17.2165 46.9721 5.16463 32.1004 5.14844ZM32.1004 7.71413C40.0245 7.72039 47.4501 11.5824 52.005 18.0667L48.7979 21.2738C48.0175 20.8016 47.124 20.5489 46.2117 20.5426C43.3777 20.5426 41.0803 22.84 41.0803 25.674C41.0848 26.5872 41.3361 27.4822 41.8077 28.2641L33.4076 36.6641C31.817 35.6943 29.818 35.6943 28.2275 36.6641L22.3931 30.8298C22.8647 30.0479 23.116 29.1529 23.1204 28.2397C23.124 25.4113 20.8341 23.1157 18.0057 23.1121C15.6666 23.1093 13.6229 24.6915 13.0398 26.9568H8.28047C10.7094 15.7404 20.624 7.73097 32.1004 7.71413ZM48.7774 25.674C48.7774 27.0911 47.6287 28.2397 46.2117 28.2397C44.7946 28.2397 43.646 27.0911 43.646 25.674C43.646 24.2569 44.7946 23.1083 46.2117 23.1083C47.6287 23.1083 48.7774 24.2569 48.7774 25.674ZM33.3832 41.0682C33.3832 42.4852 32.2346 43.6338 30.8175 43.6338C29.4005 43.6338 28.2518 42.4852 28.2518 41.0682C28.2518 39.6511 29.4005 38.5025 30.8175 38.5025C32.2346 38.5025 33.3832 39.6511 33.3832 41.0682ZM20.5547 28.2397C20.5547 29.6567 19.4061 30.8054 17.9891 30.8054C16.572 30.8054 15.4234 29.6567 15.4234 28.2397C15.4234 26.8226 16.572 25.674 17.9891 25.674C19.4061 25.674 20.5547 26.8226 20.5547 28.2397ZM43.9433 53.4005C40.3205 55.412 36.2443 56.4659 32.1004 56.4622C18.6481 56.4713 7.73542 45.5737 7.72628 32.1214C7.72564 31.2533 7.7715 30.3856 7.86354 29.5224H13.0398C13.623 31.781 15.6564 33.3621 17.9891 33.3709C18.9023 33.3664 19.7972 33.1151 20.5791 32.6435L26.4135 38.4779C25.9419 39.2598 25.6906 40.1548 25.6861 41.068C25.6861 43.902 27.9836 46.1994 30.8175 46.1994C33.6515 46.1994 35.9489 43.902 35.9489 41.068C35.9444 40.1548 35.6931 39.2598 35.2215 38.4779L43.6216 30.0778C44.4035 30.5494 45.2985 30.8007 46.2117 30.8052C49.0457 30.8052 51.3431 28.5078 51.3431 25.6738C51.3386 24.7606 51.0873 23.8657 50.6157 23.0838L53.4123 20.2884C59.9412 32.047 55.7017 46.8718 43.9433 53.4005Z" fill="#3FD3AD"/>
<path d="M64.1715 12.845C66.5042 12.8362 68.5375 11.2553 69.1208 8.9965H77V6.43081H69.1208C68.5375 4.17203 66.5042 2.59108 64.1715 2.58227C61.3376 2.58227 59.0401 4.87968 59.0401 7.71365C59.0446 8.62688 59.2959 9.52182 59.7675 10.3037L57.5136 12.5577C46.7288 -1.49286 26.5958 -4.14033 12.5453 6.6444C-1.50525 17.4291 -4.15272 37.5623 6.63201 51.6128C16.812 64.8754 35.4728 68.0926 49.506 59.0044L53.3777 62.8761L55.1916 64.69L65.5185 75.0169C68.145 77.6434 72.4031 77.6434 75.0296 75.0169C77.656 72.3905 77.656 68.1324 75.0296 65.5059L64.7026 55.179L62.8887 53.365L59.0171 49.4934C65.8897 38.9074 65.8897 25.2683 59.0171 14.6821L61.5828 12.1164C62.3642 12.5881 63.2588 12.8399 64.1715 12.845ZM64.1715 5.14796C65.5886 5.14796 66.7372 6.29659 66.7372 7.71365C66.7372 9.13072 65.5886 10.2793 64.1715 10.2793C62.7545 10.2793 61.6058 9.13072 61.6058 7.71365C61.6058 6.29659 62.7546 5.14796 64.1715 5.14796ZM73.2156 67.3198C74.8586 68.926 74.8886 71.56 73.2825 73.203C71.6764 74.846 69.0424 74.876 67.3993 73.2699C67.3767 73.2479 67.3546 73.2256 67.3325 73.203L57.0056 62.8761L62.8887 56.9929L73.2156 67.3198ZM61.0747 55.179L55.1916 61.0621L51.6407 57.5112C51.8216 57.3727 51.9909 57.22 52.1692 57.0776C52.3475 56.9352 52.5541 56.7646 52.7452 56.6042C53.0262 56.3682 53.3033 56.1296 53.5752 55.8846C53.715 55.7563 53.8485 55.628 53.9857 55.4997C54.5117 55.0071 55.021 54.4978 55.5136 53.9718C55.6419 53.8346 55.7702 53.7011 55.8985 53.5613C56.1435 53.2894 56.3821 53.0123 56.6181 52.7313C56.779 52.5415 56.9368 52.3495 57.0915 52.1553C57.2326 51.9783 57.3853 51.8089 57.5238 51.6281L61.0747 55.179ZM56.0999 49.2202C55.6958 49.7846 55.2788 50.3375 54.8388 50.8699C54.7105 51.0251 54.5733 51.1752 54.4411 51.3279C54.0486 51.7846 53.6432 52.2276 53.225 52.6569C53.0428 52.845 52.8576 53.0302 52.6695 53.2124C52.2419 53.6306 51.799 54.036 51.3405 54.4285C51.1878 54.5568 51.0378 54.6966 50.8825 54.8262C50.3501 55.2662 49.7972 55.6831 49.2328 56.0872C35.9528 65.5747 17.496 62.5002 8.0085 49.2202C-1.47895 35.9401 1.59555 17.4833 14.8756 7.99588C28.1556 -1.49158 46.6124 1.58277 56.0999 14.863C63.4411 25.1389 63.4411 38.9442 56.0999 49.2202Z" fill="#3FD3AD"/>
</g>
<defs>
<clipPath id="clip0">
<rect width="77" height="77" fill="white"/>
</clipPath>
</defs>
</svg>
