<svg width="77" height="77" viewBox="0 0 77 77" fill="none" xmlns="http://www.w3.org/2000/svg">
<g clip-path="url(#clip0)">
<path d="M76.8584 18.259C76.5934 17.2735 75.9468 16.4333 75.0622 15.9239C74.1769 15.4121 73.1244 15.2736 72.137 15.5386C71.1508 15.8043 70.3107 16.4502 69.8013 17.3349L69.1597 18.4513C68.5501 18.1011 67.7714 18.3072 67.4149 18.9137L64.1557 24.4691L63.0393 23.8275C62.7435 23.6565 62.3914 23.6101 62.0619 23.6991C61.7317 23.7887 61.451 24.0054 61.2812 24.3024C60.9335 24.9158 61.1453 25.6952 61.7562 26.0473L62.8726 26.6888L51.9661 45.5891L49.2715 52.7878L47.9884 55.1868C47.2372 56.4937 47.3174 58.1182 48.1939 59.3443L45.3069 62.8854L44.4986 60.8586C44.134 59.9552 43.2901 59.3362 42.3196 59.2604C41.3485 59.184 40.4181 59.6639 39.9175 60.499L39.4558 61.2815L39.0197 56.1491C38.9195 54.9349 37.9791 53.9588 36.7699 53.8122C35.5601 53.6662 34.4148 54.3911 34.0282 55.5464L30.8718 65.0156C30.6513 65.6854 31.0122 66.4071 31.68 66.6327C31.8053 66.6909 31.94 66.726 32.0779 66.7348C32.6292 66.7367 33.1204 66.3852 33.2971 65.8627L36.4403 56.3934L36.8895 61.6023C36.9823 62.7138 37.7811 63.6379 38.8675 63.8898C39.9539 64.1416 41.0778 63.663 41.6499 62.7063L42.1248 61.9231L42.9204 63.938C43.2581 64.7869 44.0219 65.3928 44.9259 65.5275C45.83 65.6622 46.7372 65.3057 47.3086 64.5921L50.2983 60.8073C50.6291 60.8937 50.97 60.937 51.3121 60.9357C52.6873 60.9464 53.9641 60.2221 54.6608 59.0361L55.9439 56.8934L60.8327 50.9527L71.8544 31.8213L72.9709 32.4628C73.2685 32.6332 73.4852 32.9146 73.5736 33.246C73.6625 33.5749 73.6162 33.9258 73.4458 34.2209L68.3133 43.1131C68.1197 43.405 68.0539 43.7634 68.1316 44.1055C68.2093 44.4469 68.423 44.742 68.7237 44.9218C69.0194 45.0935 69.3715 45.1399 69.7011 45.0509C70.0312 44.9613 70.3119 44.7445 70.4817 44.4476L75.6142 35.5553C76.126 34.6701 76.2645 33.6175 75.9988 32.6301C75.7332 31.644 75.0873 30.8038 74.2026 30.2944L73.0862 29.6529L76.2939 24.0969C76.6442 23.4873 76.438 22.7092 75.8322 22.352L76.4737 21.2356C76.9994 20.3365 77.1385 19.2627 76.8584 18.259ZM72.0211 18.618C72.1909 18.321 72.4728 18.1036 72.8042 18.0153C73.1338 17.9338 73.4821 17.9795 73.7791 18.1437C74.0767 18.3135 74.2935 18.5954 74.3824 18.9262C74.4639 19.2558 74.4181 19.6041 74.254 19.9011L73.6124 21.0175L71.3795 19.7344L72.0211 18.618ZM54.5324 54.4431L53.8908 54.0709L51.9918 52.967L53.8138 48.0914L57.8554 50.4264L54.5324 54.4431ZM50.683 58.1508C50.1411 57.773 49.9744 57.0463 50.2983 56.4699L50.9399 55.354L53.1722 56.6371L52.5306 57.7404C52.3508 58.0525 52.0488 58.2742 51.6974 58.3526C51.3459 58.4302 50.9781 58.3576 50.683 58.1508ZM59.3184 48.3226L54.8788 45.7564L65.1437 27.9719L69.5833 30.5382L59.3184 48.3226ZM70.8664 28.3184L66.4269 25.7522L68.9931 21.3126L73.4326 23.8789L70.8664 28.3184Z" fill="#3FD3AD"/>
<path d="M20.2473 57.5092L15.7056 62.0389L12.9853 59.3186C12.4847 58.8211 11.6765 58.8211 11.1759 59.3186C10.9328 59.5598 10.7962 59.8875 10.7962 60.2296C10.7962 60.5716 10.9328 60.8999 11.1759 61.1405L13.8962 63.8609C14.3774 64.3383 15.0277 64.6058 15.7056 64.6052C16.3873 64.6089 17.0432 64.3414 17.5275 63.8609L22.0567 59.3186C22.4927 58.8092 22.4633 58.0505 21.9896 57.5769C21.5153 57.1026 20.7566 57.0731 20.2473 57.5092Z" fill="#3FD3AD"/>
<path d="M5.13246 60.9608C5.13246 66.9848 10.0156 71.8673 16.0389 71.8673C22.0623 71.8673 26.9454 66.9848 26.9454 60.9608C26.9454 60.2522 26.3709 59.6777 25.6623 59.6777C24.9537 59.6777 24.3792 60.2522 24.3792 60.9608C24.3792 65.567 20.6451 69.3011 16.0389 69.3011C11.4328 69.3011 7.69869 65.567 7.69869 60.9608C7.69869 56.3546 11.4328 52.6206 16.0389 52.6206C17.8446 52.6156 19.602 53.2014 21.043 54.289C21.61 54.7144 22.4144 54.5991 22.8392 54.0321C23.2646 53.4651 23.1499 52.6613 22.5829 52.2359C19.278 49.7574 14.8561 49.3589 11.1615 51.2059C7.46625 53.0535 5.13246 56.8302 5.13246 60.9608Z" fill="#3FD3AD"/>
<path d="M46.1922 10.2777C46.9007 10.2777 47.4753 9.70376 47.4753 8.99454C47.4753 8.28595 46.9007 7.71143 46.1922 7.71143H12.8312C12.1226 7.71143 11.548 8.28595 11.548 8.99454V14.127C11.548 14.8362 12.1226 15.4101 12.8312 15.4101H46.1922C46.9007 15.4101 47.4753 14.8362 47.4753 14.127C47.4753 13.4184 46.9007 12.8439 46.1922 12.8439H14.1143V10.2777H46.1922Z" fill="#3FD3AD"/>
<path d="M16.6805 17.9763C15.9719 17.9763 15.3974 18.5508 15.3974 19.2594C15.3974 19.9687 15.9719 20.5425 16.6805 20.5425H42.3428C43.0514 20.5425 43.6259 19.9687 43.6259 19.2594C43.6259 18.5508 43.0514 17.9763 42.3428 17.9763H16.6805Z" fill="#3FD3AD"/>
<path d="M50.0415 26.9583H21.8129C21.1044 26.9583 20.5298 27.5328 20.5298 28.2414C20.5298 28.9506 21.1044 29.5245 21.8129 29.5245H50.0415C50.7501 29.5245 51.3246 28.9506 51.3246 28.2414C51.3246 27.5328 50.7501 26.9583 50.0415 26.9583Z" fill="#3FD3AD"/>
<path d="M37.2103 35.9401C37.2103 35.2315 36.6358 34.657 35.9272 34.657H10.2649C9.55632 34.657 8.9818 35.2315 8.9818 35.9401C8.9818 36.6493 9.55632 37.2232 10.2649 37.2232H35.9272C36.6358 37.2232 37.2103 36.6493 37.2103 35.9401Z" fill="#3FD3AD"/>
<path d="M50.0415 34.657H41.0597C40.3511 34.657 39.7766 35.2315 39.7766 35.9401C39.7766 36.6493 40.3511 37.2232 41.0597 37.2232H50.0415C50.7501 37.2232 51.3246 36.6493 51.3246 35.9401C51.3246 35.2315 50.7501 34.657 50.0415 34.657Z" fill="#3FD3AD"/>
<path d="M23.0961 43.6387C23.8047 43.6387 24.3792 43.0648 24.3792 42.3556C24.3792 41.647 23.8047 41.0725 23.0961 41.0725H10.2649C9.55632 41.0725 8.9818 41.647 8.9818 42.3556C8.9818 43.0648 9.55632 43.6387 10.2649 43.6387H23.0961Z" fill="#3FD3AD"/>
<path d="M28.2285 43.6387H37.2103C37.9189 43.6387 38.4934 43.0648 38.4934 42.3556C38.4934 41.647 37.9189 41.0725 37.2103 41.0725H28.2285C27.5199 41.0725 26.9454 41.647 26.9454 42.3556C26.9454 43.0648 27.5199 43.6387 28.2285 43.6387Z" fill="#3FD3AD"/>
<path d="M57.7402 59.0365C57.0316 59.0365 56.457 59.611 56.457 60.3196V73.1507C56.457 73.8599 55.8825 74.4338 55.1739 74.4338H3.84934C3.14075 74.4338 2.56623 73.8599 2.56623 73.1507V3.86253C2.56623 3.15393 3.14075 2.57941 3.84934 2.57941H55.1739C55.8825 2.57941 56.457 3.15393 56.457 3.86253V27.9598C56.457 28.6684 57.0316 29.2429 57.7402 29.2429C58.4487 29.2429 59.0233 28.6684 59.0233 27.9598V3.86253C59.0233 1.73674 57.2997 0.0131836 55.1739 0.0131836H3.84934C1.72356 0.0131836 0 1.73674 0 3.86253V73.1507C0 75.2771 1.72356 77.0001 3.84934 77.0001H55.1739C57.2997 77.0001 59.0233 75.2771 59.0233 73.1507V60.3196C59.0233 59.611 58.4487 59.0365 57.7402 59.0365Z" fill="#3FD3AD"/>
</g>
<defs>
<clipPath id="clip0">
<rect width="77" height="77" fill="white"/>
</clipPath>
</defs>
</svg>
