<svg width="77" height="77" viewBox="0 0 77 77" fill="none" xmlns="http://www.w3.org/2000/svg">
<path d="M49.121 20.0114C51.1942 20.0114 52.8808 18.3247 52.8808 16.2516C52.8808 14.1785 51.1942 12.4917 49.121 12.4917C47.0479 12.4917 45.3613 14.1785 45.3613 16.2516C45.3613 17.0983 45.6428 17.8803 46.117 18.5096L39.9395 27.1422C39.5709 27.0211 39.1777 26.9546 38.7689 26.9546C37.781 26.9546 36.8814 27.3383 36.2097 27.9636L32.0922 25.6271C32.1471 25.3721 32.1765 25.1077 32.1765 24.8365C32.1765 22.7634 30.4899 21.0767 28.4168 21.0767C26.3436 21.0767 24.657 22.7634 24.657 24.8365C24.657 25.1077 24.6865 25.3721 24.7414 25.6271L20.6238 27.9636C19.9522 27.3383 19.0525 26.9548 18.0646 26.9548C15.9915 26.9548 14.3049 28.6415 14.3049 30.7147C14.3049 32.7878 15.9915 34.4746 18.0646 34.4746C20.1378 34.4746 21.8244 32.7878 21.8244 30.7147C21.8244 30.4435 21.7949 30.1791 21.74 29.9241L25.8576 27.5876C26.5292 28.2129 27.4288 28.5966 28.4168 28.5966C29.4047 28.5966 30.3042 28.2129 30.976 27.5878L35.0935 29.9242C35.0386 30.1793 35.0091 30.4437 35.0091 30.7148C35.0091 32.788 36.6958 34.4747 38.7689 34.4747C40.8422 34.4747 42.5288 32.788 42.5288 30.7148C42.5288 29.868 42.2471 29.0858 41.773 28.4566L47.9504 19.824C48.3189 19.9449 48.7123 20.0114 49.121 20.0114ZM49.121 14.7476C49.9503 14.7476 50.625 15.4222 50.625 16.2516C50.625 17.0809 49.9503 17.7555 49.121 17.7555C48.2918 17.7555 47.6171 17.0809 47.6171 16.2516C47.617 15.4222 48.2916 14.7476 49.121 14.7476ZM18.0642 32.2184C17.2349 32.2184 16.5603 31.5438 16.5603 30.7144C16.5603 29.885 17.2349 29.2103 18.0642 29.2103C18.8934 29.2103 19.5681 29.885 19.5681 30.7144C19.5681 31.5438 18.8934 32.2184 18.0642 32.2184ZM28.4165 26.3404C27.5872 26.3404 26.9126 25.6658 26.9126 24.8364C26.9126 24.0071 27.5872 23.3325 28.4165 23.3325C29.2457 23.3325 29.9204 24.0071 29.9204 24.8364C29.9205 25.6658 29.2457 26.3404 28.4165 26.3404ZM38.7688 32.2184C37.9395 32.2184 37.2648 31.5438 37.2648 30.7144C37.2648 29.885 37.9395 29.2103 38.7688 29.2103C39.5982 29.2103 40.2728 29.885 40.2728 30.7144C40.2728 31.5438 39.598 32.2184 38.7688 32.2184Z" fill="#3FD3AD"/>
<path d="M62.983 56.6921H55.0896H12.0956H3.19054C2.67515 56.6921 2.25586 56.2728 2.25586 55.7575V9.22374C2.25586 8.70835 2.67515 8.28906 3.19054 8.28906H8.50775C9.13067 8.28906 9.63568 7.7842 9.63568 7.16113C9.63568 6.53806 9.13067 6.0332 8.50775 6.0332H3.19054C1.43127 6.0332 0 7.46447 0 9.22374V55.7575C0 57.5167 1.43127 58.948 3.19054 58.948H10.9677V61.4303C10.9677 62.8445 12.1182 63.995 13.5323 63.995H24.8227L19.5079 74.3716C19.224 74.9261 19.4431 75.6057 19.9976 75.8898C20.1621 75.9742 20.3378 76.014 20.5109 76.014C20.9207 76.014 21.3161 75.7899 21.5156 75.4L27.3573 63.995H39.8279L45.6696 75.4C45.8693 75.7899 46.2645 76.014 46.6743 76.014C46.8474 76.014 47.0231 75.9739 47.1876 75.8898C47.7421 75.6057 47.9614 74.9261 47.6773 74.3716L42.3625 63.995H53.6529C55.067 63.995 56.2175 62.8446 56.2175 61.4303V58.948H62.983C63.6059 58.948 64.1109 58.4431 64.1109 57.8201C64.1109 57.197 63.6059 56.6921 62.983 56.6921ZM53.9617 61.4303C53.9617 61.6006 53.8232 61.7391 53.6529 61.7391H13.5323C13.3621 61.7391 13.2235 61.6006 13.2235 61.4303V58.948H53.9617V61.4303Z" fill="#3FD3AD"/>
<path d="M13.0195 8.289H28.4604H38.7247H63.9945C64.5099 8.289 64.9292 8.70829 64.9292 9.22367V19.9482C64.9292 20.5712 65.4342 21.0761 66.0571 21.0761C66.6801 21.0761 67.1851 20.5712 67.1851 19.9482V9.22367C67.1851 7.4644 65.7538 6.03314 63.9945 6.03314H39.8528V3.81608C39.8528 2.25578 38.5833 0.986328 37.0229 0.986328H30.1624C28.602 0.986328 27.3325 2.25578 27.3325 3.81608V6.03314H13.0195C12.3966 6.03314 11.8915 6.538 11.8915 7.16107C11.8915 7.78414 12.3966 8.289 13.0195 8.289ZM29.5883 3.81608C29.5883 3.49966 29.8458 3.24219 30.1624 3.24219H37.0229C37.3393 3.24219 37.5969 3.49966 37.5969 3.81608V6.03314H29.5885V3.81608H29.5883Z" fill="#3FD3AD"/>
<path d="M15.7763 40.241C15.1534 40.241 14.6483 40.7458 14.6483 41.3689V51.3356C14.6483 51.9587 15.1534 52.4635 15.7763 52.4635H20.3522C20.9751 52.4635 21.4801 51.9587 21.4801 51.3356V41.3689C21.4801 40.7458 20.9751 40.241 20.3522 40.241H15.7763ZM19.2243 50.2078H16.9042V42.497H19.2243V50.2078Z" fill="#3FD3AD"/>
<path d="M26.1284 34.4768C25.5055 34.4768 25.0005 34.9817 25.0005 35.6047V51.3358C25.0005 51.9588 25.5055 52.4637 26.1284 52.4637H30.7044C31.3273 52.4637 31.8323 51.9588 31.8323 51.3358V35.6047C31.8323 34.9817 31.3273 34.4768 30.7044 34.4768H26.1284ZM29.5766 50.2078H27.2565V36.7327H29.5766V50.2078Z" fill="#3FD3AD"/>
<path d="M36.4807 40.241C35.8578 40.241 35.3528 40.7458 35.3528 41.3689V51.3356C35.3528 51.9587 35.8578 52.4635 36.4807 52.4635H41.0566C41.6796 52.4635 42.1846 51.9587 42.1846 51.3356V41.3689C42.1846 40.7458 41.6796 40.241 41.0566 40.241H36.4807ZM39.9287 50.2078H37.6086V42.497H39.9287V50.2078Z" fill="#3FD3AD"/>
<path d="M46.833 46.8967C46.2101 46.8967 45.7051 47.4016 45.7051 48.0247V51.3358C45.7051 51.9589 46.2101 52.4637 46.833 52.4637H51.4089C52.0318 52.4637 52.5369 51.9589 52.5369 51.3358C52.5369 50.7127 52.0318 50.2079 51.4089 50.2079H47.9609V48.0247C47.9609 47.4016 47.4559 46.8967 46.833 46.8967Z" fill="#3FD3AD"/>
<path d="M76.4247 57.7528L69.9539 46.5448C71.5933 44.7974 72.7871 42.6623 73.4248 40.2825C74.444 36.479 73.9209 32.5062 71.952 29.0959C67.8875 22.0557 58.8534 19.6354 51.8136 23.6997C44.7737 27.764 42.3532 36.7981 46.4176 43.8381C48.3865 47.2483 51.5656 49.6877 55.3692 50.707C56.6394 51.0474 57.9281 51.2156 59.2086 51.2156C60.3278 51.2156 61.4406 51.0869 62.5288 50.8322L68.9983 62.0405C69.7913 63.4146 71.2354 64.1835 72.7185 64.1834C73.4454 64.1834 74.1817 63.9985 74.8553 63.6099C76.1781 62.8464 77 61.4227 77 59.8944C77 59.1456 76.8012 58.4052 76.4247 57.7528ZM55.953 48.528C52.7315 47.6648 50.0387 45.5986 48.371 42.7102C44.9286 36.7475 46.9789 29.0959 52.9414 25.6533C54.903 24.5209 57.0465 23.9831 59.1637 23.9831C63.4821 23.9831 67.6883 26.2228 69.9983 30.2238C71.6658 33.1122 72.1088 36.4771 71.2456 39.6987C70.3824 42.9204 68.3161 45.6128 65.4277 47.2805C62.5395 48.9482 59.1746 49.391 55.953 48.528ZM73.7278 61.6561C72.7573 62.2164 71.5121 61.8829 70.9522 60.9128L64.7278 50.1292C65.3516 49.8746 65.9625 49.5768 66.556 49.2343C67.1499 48.8914 67.7123 48.5097 68.2449 48.0964L74.471 58.8805C74.6497 59.1904 74.7441 59.5411 74.7441 59.8945C74.7441 60.6191 74.3546 61.2942 73.7278 61.6561Z" fill="#3FD3AD"/>
<path d="M69.4116 39.6447C70.2079 37.0796 70.0183 34.3335 68.8776 31.9122C68.612 31.3485 67.94 31.107 67.3765 31.3724C66.8128 31.638 66.5713 32.31 66.8369 32.8735C67.7367 34.7834 67.886 36.9504 67.2573 38.9756C66.625 41.0119 65.2592 42.7208 63.4113 43.7876C61.4559 44.9168 59.1777 45.2163 56.9968 44.6321C54.8159 44.0477 52.9928 42.6489 51.864 40.6935C49.5334 36.6569 50.9215 31.4768 54.9582 29.1462C57.9096 27.4424 61.5723 27.6701 64.29 29.7263C64.7869 30.1022 65.4942 30.0043 65.8701 29.5074C66.2459 29.0107 66.148 28.3033 65.6511 27.9274C62.2085 25.3225 57.5683 25.0342 53.8301 27.1925C51.3528 28.6227 49.5808 30.9321 48.8404 33.6951C48.1 36.458 48.4801 39.344 49.9103 41.8213C51.3405 44.2987 53.6499 46.0706 56.4129 46.8111C57.3355 47.0583 58.2719 47.1806 59.202 47.1806C61.0575 47.1806 62.8892 46.6939 64.5391 45.7412C66.8802 44.3898 68.6106 42.2248 69.4116 39.6447Z" fill="#3FD3AD"/>
</svg>
