<svg width="159" height="59" viewBox="0 0 159 59" fill="none" xmlns="http://www.w3.org/2000/svg">
<path d="M50.3603 16.196C51.1027 16.196 51.7214 16.3246 52.3401 16.4531C52.9588 16.5817 53.4537 16.8387 53.8249 17.0958C54.1961 17.3529 54.5673 17.8671 54.8148 18.2527C55.0623 18.7669 55.186 19.4096 55.186 20.1808C55.186 20.952 55.0623 21.5947 54.6911 22.2374C54.3199 22.7516 53.8249 23.2658 53.0825 23.5228C54.0724 23.7799 54.6911 24.2941 55.186 25.0653C55.6809 25.708 55.9284 26.6078 55.9284 27.6361C55.9284 28.4074 55.8047 29.1786 55.4335 29.6928C55.186 30.3355 54.6911 30.7211 54.1961 31.1067C53.7012 31.4923 53.0825 31.7494 52.4638 31.878C51.9689 32.0065 51.2265 32.135 50.6078 32.135H43.1837V16.196H50.3603ZM49.9891 22.6231C50.6078 22.6231 51.1027 22.4945 51.4739 22.2374C51.8451 21.9804 52.0926 21.4662 52.0926 20.8235C52.0926 20.4379 51.9689 20.1808 51.8451 19.9237C51.7214 19.6666 51.5977 19.5381 51.3502 19.4096C51.1027 19.281 50.8553 19.1525 50.6078 19.1525C50.3603 19.1525 49.9891 19.0239 49.7416 19.0239H46.5245V22.7516H49.9891V22.6231ZM50.1128 29.4357C50.484 29.4357 50.7315 29.4357 51.1027 29.3072C51.3502 29.1786 51.7214 29.1786 51.8451 28.9215C52.0926 28.793 52.2163 28.5359 52.3401 28.2788C52.4638 28.0218 52.5876 27.6361 52.5876 27.2505C52.5876 26.4793 52.3401 25.8366 51.9689 25.4509C51.4739 25.0653 50.979 24.9368 50.2366 24.9368H46.5245V29.3072H50.1128V29.4357Z" fill="#2F3234"/>
<path d="M61.1253 16.196V32.135H58.0319V16.196H61.1253Z" fill="#2F3234"/>
<path d="M63.3526 24.1657C63.3526 23.3944 63.6001 22.7517 63.8475 22.3661C64.2187 21.8519 64.5899 21.4663 65.0849 21.2092C65.5798 20.9522 66.0748 20.6951 66.6934 20.5665C67.3121 20.438 67.9308 20.438 68.5495 20.438C69.1681 20.438 69.6631 20.438 70.2818 20.5665C70.9004 20.6951 71.3954 20.8236 71.8903 21.0807C72.3853 21.3378 72.7565 21.5949 73.0039 22.109C73.2514 22.4946 73.4989 23.1373 73.4989 23.78V29.5644C73.4989 30.0785 73.4989 30.5927 73.6226 31.1068C73.6226 31.621 73.7463 31.8781 73.8701 32.1352H70.7767C70.7767 32.0066 70.653 31.7495 70.653 31.621C70.653 31.4925 70.653 31.2354 70.5292 31.1068C70.0343 31.621 69.4156 32.0066 68.7969 32.2637C68.1783 32.5208 67.4358 32.5208 66.8172 32.5208C66.3222 32.5208 65.8273 32.3922 65.3323 32.2637C64.8374 32.1352 64.4662 31.8781 64.095 31.621C63.7238 31.3639 63.4763 30.9783 63.2289 30.5927C62.9814 30.2071 62.9814 29.6929 62.9814 29.0502C62.9814 28.4075 63.1051 27.8933 63.3526 27.3792C63.6001 26.9935 63.8475 26.6079 64.2187 26.3508C64.5899 26.0938 64.9611 25.9652 65.4561 25.8367C65.951 25.7081 66.3222 25.5796 66.8172 25.5796C67.3121 25.5796 67.6833 25.4511 68.1783 25.4511C68.6732 25.4511 69.0444 25.3225 69.4156 25.194C69.7868 25.0654 70.0343 24.9369 70.2818 24.8084C70.5292 24.6798 70.5292 24.4227 70.5292 24.0371C70.5292 23.6515 70.5292 23.3944 70.4055 23.2659C70.2818 23.0088 70.158 22.8803 70.0343 22.7517C69.9106 22.6232 69.6631 22.6232 69.4156 22.4946C69.1681 22.4946 68.9207 22.4946 68.6732 22.4946C68.0545 22.4946 67.5596 22.6232 67.3121 22.8803C67.0646 23.1373 66.8172 23.6515 66.6934 24.1657H63.3526ZM70.4055 26.4794C70.2818 26.6079 70.158 26.7365 69.9106 26.7365C69.6631 26.865 69.5393 26.865 69.2919 26.865C69.0444 26.865 68.7969 26.9935 68.5495 26.9935C68.302 26.9935 68.0545 27.1221 67.8071 27.1221C67.5596 27.1221 67.3121 27.2506 67.1884 27.2506C66.9409 27.3792 66.8172 27.3792 66.5697 27.5077C66.446 27.6362 66.3222 27.7648 66.1985 28.0219C66.0748 28.2789 66.0748 28.4075 66.0748 28.7931C66.0748 29.0502 66.0748 29.3073 66.1985 29.5644C66.3222 29.8214 66.446 29.95 66.5697 30.0785C66.6934 30.2071 66.9409 30.2071 67.1884 30.3356C67.4358 30.3356 67.6833 30.4641 67.9308 30.4641C68.5495 30.4641 69.0444 30.3356 69.2919 30.2071C69.6631 29.95 69.9106 29.6929 70.0343 29.4358C70.158 29.1787 70.2818 28.7931 70.2818 28.536C70.2818 28.279 70.2818 28.0219 70.2818 27.7648V26.4794H70.4055Z" fill="#2F3234"/>
<path d="M81.1704 22.6231C80.6755 22.6231 80.3043 22.7516 79.9331 23.0087C79.5619 23.2658 79.3144 23.5228 79.067 23.9085C78.8195 24.2941 78.6957 24.6797 78.572 25.0653C78.4483 25.4509 78.4483 25.9651 78.4483 26.3507C78.4483 26.7363 78.4483 27.2505 78.572 27.6361C78.6957 28.0217 78.8195 28.4074 78.9432 28.793C79.1907 29.1786 79.4382 29.4357 79.6856 29.6928C80.0568 29.9498 80.428 30.0784 80.923 30.0784C81.6654 30.0784 82.1603 29.8213 82.6553 29.4357C83.0265 29.0501 83.274 28.4074 83.3977 27.7647H86.3673C86.1199 29.3071 85.6249 30.464 84.635 31.2352C83.6452 32.0065 82.5315 32.3921 81.0467 32.3921C80.1806 32.3921 79.4382 32.2636 78.8195 32.0065C78.0771 31.7494 77.5821 31.3638 77.0872 30.8496C76.5922 30.3355 76.221 29.6928 75.9736 29.0501C75.7261 28.2788 75.6024 27.5076 75.6024 26.7363C75.6024 25.8366 75.7261 25.0653 75.9736 24.2941C76.221 23.5228 76.5922 22.8801 77.0872 22.366C77.5821 21.8518 78.2008 21.3376 78.8195 21.0806C79.5619 20.8235 80.3043 20.5664 81.1704 20.5664C81.7891 20.5664 82.4078 20.6949 83.0265 20.8235C83.6452 20.952 84.1401 21.2091 84.635 21.5947C85.13 21.9803 85.5012 22.366 85.7487 23.0087C85.9961 23.6514 86.2436 24.1655 86.2436 24.9368H83.274C83.1502 23.3943 82.4078 22.6231 81.1704 22.6231Z" fill="#2F3234"/>
<path d="M91.4405 16.196V24.6797L95.2763 20.5664H98.9884L94.7813 24.8082L99.4833 32.135H95.7712L92.6778 26.9934L91.4405 28.1503V32.135H88.3471V16.196H91.4405Z" fill="#2F3234"/>
<path d="M103.072 29.3073C103.195 29.5643 103.443 29.6929 103.567 29.95C103.814 30.0785 104.062 30.207 104.309 30.3356C104.556 30.4641 104.928 30.4641 105.175 30.4641C105.423 30.4641 105.67 30.4641 105.794 30.3356C105.918 30.207 106.289 30.207 106.412 30.0785C106.66 29.95 106.784 29.8214 106.907 29.6929C107.031 29.5643 107.155 29.3073 107.155 29.0502C107.155 28.536 106.907 28.2789 106.289 28.0219C105.67 27.7648 104.804 27.5077 103.69 27.2506C103.195 27.1221 102.824 26.9935 102.453 26.865C102.082 26.7365 101.711 26.4794 101.339 26.3508C100.968 26.0938 100.721 25.8367 100.597 25.4511C100.349 25.0654 100.349 24.6798 100.349 24.1657C100.349 23.3944 100.473 22.7517 100.721 22.3661C100.968 21.8519 101.339 21.4663 101.834 21.2092C102.329 20.9521 102.824 20.6951 103.319 20.5665C103.814 20.438 104.433 20.438 105.051 20.438C105.67 20.438 106.289 20.438 106.784 20.5665C107.402 20.6951 107.897 20.8236 108.269 21.2092C108.763 21.4663 109.135 21.8519 109.382 22.3661C109.63 22.8803 109.877 23.3944 109.877 24.1657H107.031C107.031 23.523 106.784 23.1373 106.412 22.8803C106.041 22.6232 105.546 22.4946 105.051 22.4946C104.928 22.4946 104.68 22.4946 104.433 22.4946C104.185 22.4946 104.062 22.6232 103.938 22.6232C103.814 22.7517 103.69 22.7517 103.567 23.0088C103.443 23.1373 103.443 23.3944 103.443 23.523C103.443 23.78 103.567 24.0371 103.69 24.1657C103.938 24.2942 104.185 24.5513 104.433 24.5513C104.804 24.6798 105.175 24.8084 105.546 24.8084C105.918 24.9369 106.412 24.9369 106.784 25.0654C107.279 25.194 107.65 25.3225 108.021 25.4511C108.392 25.5796 108.763 25.8367 109.135 26.0938C109.506 26.3508 109.753 26.6079 109.877 26.9935C110.001 27.3792 110.125 27.7648 110.125 28.2789C110.125 29.0502 110.001 29.6929 109.63 30.207C109.382 30.7212 109.011 31.1068 108.516 31.4925C108.021 31.7495 107.526 32.0066 106.907 32.1352C106.289 32.2637 105.67 32.2637 105.051 32.2637C104.433 32.2637 103.814 32.1352 103.195 32.0066C102.577 31.8781 102.082 31.621 101.587 31.3639C101.092 31.1068 100.721 30.5927 100.349 30.0785C100.102 29.5643 99.8545 28.9216 99.8545 28.1504H102.7C102.824 28.7931 102.948 29.0502 103.072 29.3073Z" fill="#2F3234"/>
<path d="M115.074 16.196V22.2374C115.445 21.5947 115.94 21.0806 116.559 20.8235C117.177 20.5664 117.796 20.3093 118.291 20.3093C119.157 20.3093 119.776 20.4379 120.271 20.695C120.766 20.952 121.261 21.2091 121.508 21.5947C121.756 21.9804 122.003 22.4945 122.127 23.1372C122.251 23.7799 122.251 24.4226 122.251 25.0653V32.135H119.157V25.5795C119.157 24.6797 119.033 23.9085 118.786 23.3943C118.538 22.8801 118.044 22.7516 117.301 22.7516C116.435 22.7516 115.816 23.0087 115.445 23.5228C115.074 24.037 114.826 24.9368 114.826 26.0936V32.135H111.733V16.196H115.074Z" fill="#2F3234"/>
<path d="M124.849 18.7669V16.196H127.942V18.7669H124.849ZM127.942 20.5664V32.135H124.849V20.5664H127.942Z" fill="#2F3234"/>
<path d="M133.51 29.4358C134.005 29.95 134.624 30.0785 135.49 30.0785C136.109 30.0785 136.604 29.95 137.099 29.5644C137.594 29.3073 137.841 28.9217 137.965 28.536H140.687C140.316 29.95 139.574 30.8498 138.707 31.4925C137.841 32.1352 136.728 32.3922 135.49 32.3922C134.624 32.3922 133.882 32.2637 133.139 32.0066C132.397 31.7495 131.902 31.3639 131.407 30.7212C130.912 30.2071 130.541 29.5644 130.293 28.7931C130.046 28.0219 129.922 27.2506 129.922 26.3508C129.922 25.4511 130.046 24.6798 130.293 23.9086C130.541 23.1373 130.912 22.4946 131.407 21.9805C131.902 21.4663 132.521 20.9522 133.139 20.6951C133.882 20.438 134.624 20.1809 135.49 20.1809C136.48 20.1809 137.223 20.3094 137.965 20.6951C138.707 21.0807 139.202 21.5949 139.697 22.2376C140.192 22.8803 140.44 23.6515 140.687 24.4227C140.935 25.194 140.935 26.0938 140.935 26.9935H132.892C132.892 28.1504 133.139 28.9217 133.51 29.4358ZM136.975 23.2659C136.604 22.8803 136.109 22.6232 135.367 22.6232C134.872 22.6232 134.5 22.7517 134.129 22.8803C133.758 23.0088 133.511 23.2659 133.387 23.523C133.139 23.78 133.016 24.0371 133.016 24.2942C132.892 24.5513 132.892 24.8084 132.892 25.0654H137.841C137.594 24.2942 137.346 23.78 136.975 23.2659Z" fill="#2F3234"/>
<path d="M145.76 16.196V32.135H142.667V16.196H145.76Z" fill="#2F3234"/>
<path d="M156.03 30.7211C155.659 31.3638 155.164 31.7494 154.669 32.0065C154.051 32.2636 153.432 32.3921 152.689 32.3921C151.823 32.3921 151.081 32.2636 150.462 31.878C149.844 31.4923 149.349 31.1067 148.854 30.464C148.482 29.9499 148.111 29.1786 147.988 28.5359C147.74 27.7647 147.616 26.9934 147.616 26.2222C147.616 25.451 147.74 24.6797 147.988 24.037C148.235 23.2658 148.482 22.6231 148.854 22.1089C149.225 21.5947 149.72 21.0806 150.339 20.8235C150.957 20.4379 151.7 20.3093 152.442 20.3093C153.061 20.3093 153.679 20.4379 154.298 20.695C154.917 20.952 155.412 21.4662 155.659 21.9804V16.196H158.753V32.1351H155.907L156.03 30.7211ZM155.907 24.9368C155.783 24.5512 155.659 24.1655 155.412 23.7799C155.164 23.3943 154.917 23.1372 154.546 23.0087C154.174 22.7516 153.803 22.7516 153.308 22.7516C152.813 22.7516 152.442 22.8801 152.071 23.0087C151.7 23.2658 151.452 23.5228 151.205 23.7799C150.957 24.1655 150.833 24.5512 150.71 24.9368C150.586 25.3224 150.586 25.8366 150.586 26.3507C150.586 26.7364 150.586 27.2505 150.71 27.6361C150.833 28.0218 150.957 28.5359 151.205 28.793C151.452 29.1786 151.7 29.4357 152.071 29.6928C152.442 29.9499 152.813 30.0784 153.308 30.0784C153.803 30.0784 154.174 29.9499 154.546 29.8213C154.917 29.5642 155.164 29.3072 155.412 28.9215C155.659 28.5359 155.783 28.1503 155.783 27.7647C155.907 27.3791 155.907 26.8649 155.907 26.3507C155.907 25.8366 156.03 25.451 155.907 24.9368Z" fill="#2F3234"/>
<path d="M0 10.6689V58.8716H0.371206C18.8078 58.8716 33.9035 43.1896 33.9035 23.9086V15.9391C33.9035 15.9391 27.4693 16.0676 20.2926 15.9391C11.3837 15.9391 1.23735 14.9108 0 10.6689Z" fill="#E4E4E3"/>
<path d="M0.989907 9.12636C2.22726 11.0545 5.93932 13.3682 15.5907 13.6253C15.5907 11.183 15.5907 6.04139 15.5907 0.385621V0H15.2195C7.17668 0 1.85605 1.9281 0.494965 5.27015C0.247494 5.78431 2.35736e-05 7.45534 0.989907 9.12636Z" fill="#E4E4E3"/>
<path d="M28.9541 16.0676V23.78C28.9541 41.5186 16.3331 56.3007 0 58.8716V59.0001H0.371206C18.8078 59.0001 33.9035 43.3182 33.9035 24.0371V16.0676C33.9035 16.0676 31.9237 16.0676 28.9541 16.0676Z" fill="#3FD3AD"/>
<path d="M44.1553 49.6168V53.8604H43V43.6561H45.7252C46.944 43.6561 47.8433 43.8957 48.4232 44.375C49.0077 44.8543 49.2999 45.5755 49.2999 46.5387C49.2999 47.8881 48.6339 48.8001 47.3019 49.2747L49.9999 53.8604H48.6339L46.2281 49.6168H44.1553ZM44.1553 48.5977H45.7388C46.5543 48.5977 47.1524 48.4325 47.5329 48.1022C47.9135 47.7671 48.1038 47.2669 48.1038 46.6015C48.1038 45.9268 47.909 45.4406 47.5194 45.1428C47.1342 44.845 46.5135 44.6961 45.6572 44.6961H44.1553V48.5977Z" fill="black"/>
<path d="M54.5804 54C53.4795 54 52.6096 53.6557 51.9707 52.967C51.3365 52.2783 51.0193 51.3221 51.0193 50.0984C51.0193 48.8653 51.3138 47.8858 51.9028 47.1599C52.4963 46.434 53.2914 46.0711 54.2882 46.0711C55.2215 46.0711 55.96 46.3875 56.5037 47.0203C57.0474 47.6485 57.3192 48.4791 57.3192 49.5121V50.2449H52.1882C52.2109 51.143 52.4306 51.8247 52.8474 52.29C53.2688 52.7553 53.86 52.9879 54.6212 52.9879C55.4231 52.9879 56.216 52.8158 56.9998 52.4714V53.5044C56.6011 53.6813 56.2228 53.8069 55.8649 53.8813C55.5115 53.9604 55.0833 54 54.5804 54ZM54.2746 47.0412C53.6765 47.0412 53.1986 47.2413 52.8406 47.6415C52.4872 48.0417 52.2788 48.5954 52.2154 49.3027H56.1095C56.1095 48.5721 55.951 48.0137 55.6338 47.6275C55.3167 47.2367 54.8636 47.0412 54.2746 47.0412Z" fill="black"/>
<path d="M63.8298 53.8604L63.6055 52.7716H63.5512C63.1797 53.2508 62.8081 53.5766 62.4366 53.7487C62.0696 53.9162 61.6098 54 61.057 54C60.3185 54 59.7386 53.8046 59.3172 53.4137C58.9004 53.0228 58.692 52.4668 58.692 51.7456C58.692 50.2007 59.8949 49.3911 62.3007 49.3166L63.5648 49.2747V48.8001C63.5648 48.1999 63.4379 47.7578 63.1842 47.474C62.935 47.1855 62.534 47.0412 61.9813 47.0412C61.3606 47.0412 60.6583 47.2367 59.8745 47.6275L59.5279 46.7411C59.8949 46.5364 60.2959 46.3758 60.7308 46.2595C61.1703 46.1432 61.6098 46.085 62.0492 46.085C62.9373 46.085 63.5942 46.2874 64.0201 46.6923C64.4505 47.0971 64.6657 47.7462 64.6657 48.6396V53.8604H63.8298ZM61.2813 53.0438C61.9836 53.0438 62.534 52.846 62.9327 52.4505C63.336 52.055 63.5376 51.5013 63.5376 50.7893V50.0984L62.4094 50.1472C61.5124 50.1798 60.8645 50.324 60.4658 50.5799C60.0716 50.8312 59.8745 51.2244 59.8745 51.7595C59.8745 52.1783 59.9968 52.497 60.2415 52.7157C60.4907 52.9344 60.8373 53.0438 61.2813 53.0438Z" fill="black"/>
<path d="M68.1249 53.8604H66.9967V43H68.1249V53.8604Z" fill="black"/>
<path d="M79.8412 53.8604H74.3025V43.6561H79.8412V44.71H75.4578V47.9975H79.5762V49.0444H75.4578V52.7995H79.8412V53.8604Z" fill="black"/>
<path d="M86.6848 51.7735C86.6848 52.4854 86.4266 53.0345 85.9101 53.4207C85.3936 53.8069 84.6687 54 83.7353 54C82.7477 54 81.9774 53.8395 81.4247 53.5184V52.4435C81.7826 52.6297 82.1655 52.7762 82.5732 52.8832C82.9855 52.9903 83.382 53.0438 83.7625 53.0438C84.3515 53.0438 84.8046 52.9484 85.1217 52.7576C85.4389 52.5622 85.5975 52.2667 85.5975 51.8712C85.5975 51.5734 85.4706 51.3198 85.2169 51.1104C84.9677 50.8964 84.4784 50.6451 83.7489 50.3566C83.0557 50.0914 82.5619 49.861 82.2674 49.6656C81.9774 49.4655 81.76 49.2398 81.615 48.9886C81.4745 48.7373 81.4043 48.4372 81.4043 48.0882C81.4043 47.4647 81.6512 46.9738 82.1451 46.6155C82.6389 46.2525 83.3163 46.0711 84.1771 46.0711C84.979 46.0711 85.7628 46.2386 86.5285 46.5736L86.1275 47.5159C85.38 47.1995 84.7026 47.0412 84.0955 47.0412C83.5609 47.0412 83.1577 47.1273 82.8858 47.2995C82.614 47.4717 82.4781 47.709 82.4781 48.0114C82.4781 48.2162 82.5279 48.3907 82.6276 48.5349C82.7318 48.6791 82.8972 48.8164 83.1237 48.9467C83.3502 49.077 83.7852 49.2654 84.4285 49.5121C85.312 49.8424 85.9078 50.1751 86.2159 50.5102C86.5285 50.8452 86.6848 51.2663 86.6848 51.7735Z" fill="black"/>
<path d="M90.9323 53.0438C91.1317 53.0438 91.3242 53.0298 91.51 53.0019C91.6958 52.9693 91.843 52.9368 91.9517 52.9042V53.7906C91.8294 53.8511 91.6482 53.9 91.4081 53.9372C91.1725 53.9791 90.9595 54 90.7692 54C89.3285 54 88.6081 53.2206 88.6081 51.6618V47.111H87.5411V46.5527L88.6081 46.0711L89.0838 44.4378H89.7362V46.2107H91.8974V47.111H89.7362V51.6129C89.7362 52.0736 89.8427 52.4272 90.0556 52.6739C90.2686 52.9205 90.5608 53.0438 90.9323 53.0438Z" fill="black"/>
<path d="M98.0274 53.8604L97.8031 52.7716H97.7487C97.3772 53.2508 97.0057 53.5766 96.6342 53.7487C96.2672 53.9162 95.8073 54 95.2546 54C94.5161 54 93.9362 53.8046 93.5148 53.4137C93.098 53.0228 92.8896 52.4668 92.8896 51.7456C92.8896 50.2007 94.0925 49.3911 96.4983 49.3166L97.7623 49.2747V48.8001C97.7623 48.1999 97.6355 47.7578 97.3818 47.474C97.1326 47.1855 96.7316 47.0412 96.1789 47.0412C95.5582 47.0412 94.8559 47.2367 94.0721 47.6275L93.7255 46.7411C94.0925 46.5364 94.4935 46.3758 94.9284 46.2595C95.3679 46.1432 95.8073 46.085 96.2468 46.085C97.1348 46.085 97.7918 46.2874 98.2177 46.6923C98.6481 47.0971 98.8633 47.7462 98.8633 48.6396V53.8604H98.0274ZM95.4789 53.0438C96.1811 53.0438 96.7316 52.846 97.1303 52.4505C97.5335 52.055 97.7352 51.5013 97.7352 50.7893V50.0984L96.607 50.1472C95.7099 50.1798 95.062 50.324 94.6633 50.5799C94.2692 50.8312 94.0721 51.2244 94.0721 51.7595C94.0721 52.1783 94.1944 52.497 94.4391 52.7157C94.6883 52.9344 95.0349 53.0438 95.4789 53.0438Z" fill="black"/>
<path d="M103.6 53.0438C103.799 53.0438 103.992 53.0298 104.178 53.0019C104.364 52.9693 104.511 52.9368 104.62 52.9042V53.7906C104.497 53.8511 104.316 53.9 104.076 53.9372C103.84 53.9791 103.627 54 103.437 54C101.996 54 101.276 53.2206 101.276 51.6618V47.111H100.209V46.5527L101.276 46.0711L101.752 44.4378H102.404V46.2107H104.565V47.111H102.404V51.6129C102.404 52.0736 102.51 52.4272 102.723 52.6739C102.936 52.9205 103.229 53.0438 103.6 53.0438Z" fill="black"/>
<path d="M109.261 54C108.16 54 107.29 53.6557 106.652 52.967C106.017 52.2783 105.7 51.3221 105.7 50.0984C105.7 48.8653 105.995 47.8858 106.584 47.1599C107.177 46.434 107.972 46.0711 108.969 46.0711C109.902 46.0711 110.641 46.3875 111.184 47.0203C111.728 47.6485 112 48.4791 112 49.5121V50.2449H106.869C106.892 51.143 107.111 51.8247 107.528 52.29C107.95 52.7553 108.541 52.9879 109.302 52.9879C110.104 52.9879 110.897 52.8158 111.681 52.4714V53.5044C111.282 53.6813 110.904 53.8069 110.546 53.8813C110.192 53.9604 109.764 54 109.261 54ZM108.955 47.0412C108.357 47.0412 107.879 47.2413 107.521 47.6415C107.168 48.0417 106.96 48.5954 106.896 49.3027H110.79C110.79 48.5721 110.632 48.0137 110.315 47.6275C109.997 47.2367 109.544 47.0412 108.955 47.0412Z" fill="black"/>
</svg>
