<svg width="76" height="75" viewBox="0 0 76 75" fill="none" xmlns="http://www.w3.org/2000/svg">
<path d="M19.597 36.3032C15.1648 36.3032 10.9844 37.7271 7.50584 40.4201C6.71216 41.035 5.95977 41.7154 5.27046 42.4433C4.23975 43.5322 3.3366 44.7378 2.58745 46.0267C0.894336 48.937 0 52.2587 0 55.6321C0 66.2908 8.79121 74.9619 19.597 74.9619C30.4028 74.9619 39.1935 66.2908 39.1935 55.6321C39.1935 44.9744 30.4028 36.3032 19.597 36.3032ZM19.597 72.0227C10.4338 72.0227 2.97942 64.6702 2.97942 55.6321C2.97942 52.7712 3.73738 49.9551 5.17212 47.489C5.80808 46.3959 6.57346 45.3733 7.44832 44.4491C8.03325 43.831 8.672 43.2531 9.34554 42.7315C12.2934 40.4485 15.8387 39.2419 19.597 39.2419C28.7598 39.2419 36.2146 46.5949 36.2146 55.6321C36.2146 64.6702 28.7598 72.0227 19.597 72.0227Z" fill="black"/>
<path d="M19.597 42.0698C17.3338 42.0698 15.4807 42.4583 13.7639 43.2919C13.0259 43.6501 12.722 44.5309 13.0857 45.2588C13.4485 45.9868 14.3414 46.2874 15.0794 45.9287C16.3894 45.2927 17.7828 45.009 19.597 45.009C25.4315 45.009 30.1783 49.6914 30.1783 55.4458C30.1783 61.2011 25.4315 65.8835 19.597 65.8835C13.762 65.8835 9.01528 61.2011 9.01528 55.4458C9.01528 54.8304 9.06955 54.2132 9.17763 53.6125C9.32143 52.8132 8.78103 52.0509 7.97019 51.9095C7.16028 51.7672 6.38748 52.3007 6.24368 53.1005C6.10544 53.8696 6.0354 54.6589 6.0354 55.4458C6.0354 62.8217 12.119 68.8223 19.597 68.8223C27.0745 68.8223 33.1581 62.8217 33.1581 55.4458C33.1581 48.0704 27.0745 42.0698 19.597 42.0698Z" fill="black"/>
<path d="M18.9615 61.3498C17.9021 61.3498 16.972 60.125 16.972 58.729C16.972 57.9183 16.3054 57.2599 15.4825 57.2599C14.6596 57.2599 13.993 57.9183 13.993 58.729C13.993 61.3439 15.6152 63.5419 17.7921 64.1316C17.8241 64.9154 18.4763 65.5417 19.2793 65.5417C20.1017 65.5417 20.7687 64.8843 20.7687 64.0726V64.0662C22.9823 63.5103 24.8986 61.8943 24.8986 59.0589C24.8986 55.6763 21.3964 53.8302 19.5966 53.8293C19.3716 53.8293 18.6809 53.7195 18.0946 53.3932C17.3677 52.9874 17.2744 52.5244 17.2744 52.1657C17.2744 49.9375 19.5738 49.8748 19.597 49.8748C20.0354 49.8748 20.5679 50.1305 20.9844 50.5423C21.1941 50.7482 21.2159 50.7697 21.2159 51.6047C21.2159 52.4164 21.883 53.0711 22.7054 53.0711C23.5283 53.0711 24.1953 52.4104 24.1953 51.5983C24.1953 50.6398 24.1953 49.5527 23.0918 48.4637C22.4173 47.7985 21.6074 47.3277 20.766 47.0975C20.7363 46.3115 20.0832 45.6824 19.2793 45.6824C18.4564 45.6824 17.7893 46.3408 17.7893 47.1524V47.2819C16.1176 47.8854 14.295 49.3436 14.295 52.1652C14.295 53.7684 15.1235 55.1131 16.6287 55.9513C17.7105 56.5544 18.9026 56.768 19.5826 56.768H19.5845C20.0465 56.7969 21.9191 57.6035 21.9191 59.0589C21.9191 61.1846 19.655 61.3498 18.9615 61.3498Z" fill="black"/>
<path d="M55.954 38.6584C66.7598 38.6584 75.551 29.9874 75.551 19.3297C75.551 8.67109 66.7598 0 55.954 0C51.5222 0 47.3414 1.42337 43.8633 4.11685C43.0687 4.73131 42.3168 5.41211 41.6279 6.14004C40.5977 7.22896 39.6945 8.43409 38.9449 9.72295C37.2518 12.6342 36.357 15.9559 36.357 19.3297C36.357 29.9874 45.1482 38.6584 55.954 38.6584ZM41.5291 11.1857C42.1655 10.0926 42.9309 9.06914 43.8058 8.14584C44.3902 7.52818 45.0285 6.94986 45.7025 6.42828C48.6509 4.14521 52.1957 2.93917 55.954 2.93917C65.1167 2.93917 72.5711 10.2917 72.5711 19.3297C72.5711 28.3668 65.1167 35.7197 55.954 35.7197C46.7912 35.7197 39.3364 28.3668 39.3364 19.3297C39.3364 16.4674 40.0948 13.6517 41.5291 11.1857Z" fill="black"/>
<path d="M55.954 32.519C63.432 32.519 69.5151 26.5186 69.5151 19.1432C69.5151 11.7678 63.432 5.76733 55.954 5.76733C48.4764 5.76733 42.3928 11.7678 42.3928 19.1432C42.3928 26.5186 48.4764 32.519 55.954 32.519ZM55.954 8.70604C61.7885 8.70604 66.5357 13.3879 66.5357 19.1432C66.5357 24.898 61.7885 29.5799 55.954 29.5799C50.119 29.5799 45.3722 24.898 45.3722 19.1432C45.3722 13.3879 50.119 8.70604 55.954 8.70604Z" fill="black"/>
<path d="M69.0457 40.8883L53.3452 42.1104C52.7658 42.1557 52.2662 42.5281 52.0649 43.0666C51.8636 43.6042 51.9981 44.2086 52.4091 44.614L54.0711 46.2534L42.3279 57.8363C42.0473 58.1131 41.89 58.4883 41.8909 58.8799C41.8923 59.2711 42.0519 59.6458 42.3339 59.9208L51.0467 68.4104C51.3367 68.6936 51.7152 68.835 52.0937 68.835C52.4703 68.835 52.8475 68.6945 53.1369 68.414L55.2545 66.3643C55.8413 65.7956 55.8501 64.8649 55.2744 64.2866C54.6978 63.7069 53.7543 63.6982 53.1671 64.2669L52.0969 65.3033L45.4943 58.8694L57.231 47.2924C57.8127 46.7182 57.8127 45.7885 57.231 45.2138L56.8005 44.7893L67.54 43.9538L66.693 54.5462L66.0097 53.8731C65.7304 53.5972 65.3519 53.4421 64.9562 53.4421C64.5615 53.4421 64.1821 53.5972 63.9028 53.8731L61.7417 56.0043C61.1595 56.5785 61.1595 57.5092 61.7417 58.0829C62.3233 58.6562 63.2668 58.6562 63.8481 58.0829L64.9562 56.9899L66.8702 58.8776C67.2816 59.283 67.8944 59.4157 68.4394 59.2176C68.9849 59.019 69.363 58.5263 69.4089 57.9548L70.6479 42.4686C70.6822 42.0399 70.5245 41.6176 70.2165 41.3143C69.908 41.01 69.4794 40.8535 69.0457 40.8883Z" fill="black"/>
<path d="M6.75856 34.2507C6.79706 34.2507 6.83649 34.2498 6.87592 34.2462L22.5764 33.0245C23.1553 32.9792 23.6554 32.6059 23.8567 32.0678C24.0575 31.5302 23.923 30.9254 23.512 30.52L21.8505 28.8816L33.5937 17.2982C34.1759 16.7245 34.1759 15.7939 33.5937 15.2201L24.815 6.56131C24.2334 5.98803 23.2908 5.98803 22.7086 6.56131L10.9649 18.1447L9.05099 16.2564C8.64 15.8511 8.0277 15.7184 7.48219 15.9169C6.93622 16.1151 6.5577 16.6083 6.51271 17.1797L5.27326 32.6654C5.23939 33.0941 5.39711 33.5164 5.70465 33.8202C5.98529 34.097 6.36473 34.2507 6.75856 34.2507ZM9.22865 20.5879L9.91146 21.2614C10.4931 21.8351 11.4367 21.8351 12.0188 21.2614L23.7621 9.67848L30.4334 16.2587L18.6901 27.8416C18.4109 28.1175 18.2536 28.4913 18.2536 28.8811C18.2536 29.2709 18.4109 29.6443 18.6901 29.9202L19.1211 30.3452L8.38116 31.1807L9.22865 20.5879Z" fill="black"/>
<path d="M9.83769 49.6392C9.95134 49.6392 10.0668 49.6259 10.1828 49.5989L10.2376 49.5866C11.0382 49.3994 11.5331 48.608 11.3439 47.8184C11.1542 47.0288 10.3517 46.5407 9.55102 46.7269L9.49628 46.7397C8.69564 46.9263 8.20022 47.7182 8.38948 48.5078C8.55184 49.184 9.16276 49.6392 9.83769 49.6392Z" fill="black"/>
<path d="M56.8571 27.4543C58.6319 27.4543 60.3329 26.92 61.7746 25.9079C62.4449 25.438 62.6021 24.5207 62.1257 23.8591C61.6484 23.1975 60.7184 23.0429 60.0481 23.5128C59.1129 24.1689 58.0094 24.5152 56.8571 24.5152C55.1195 24.5152 53.5679 23.7177 52.5566 22.4746H55.3825C56.2054 22.4746 56.8729 21.8172 56.8729 21.0055C56.8729 20.1943 56.2054 19.5364 55.3825 19.5364H51.365C51.3515 19.385 51.3436 19.2322 51.3436 19.078C51.3436 18.9622 51.3487 18.8479 51.3557 18.7348H58.0001C58.823 18.7348 59.4896 18.0765 59.4896 17.2648C59.4896 16.4532 58.823 15.7957 58.0001 15.7957H52.4648C53.4728 14.4872 55.0666 13.6399 56.8571 13.6399C58.0094 13.6399 59.112 13.9862 60.0467 14.6414C60.7179 15.1122 61.6479 14.9566 62.1243 14.2955C62.6012 13.6344 62.4439 12.717 61.7736 12.2462C60.3315 11.2351 58.6314 10.7012 56.8571 10.7012C53.3549 10.7012 50.3412 12.8035 49.0438 15.7957H48.322C47.4991 15.7957 46.8325 16.4532 46.8325 17.2648C46.8325 18.0765 47.4991 18.7348 48.322 18.7348H48.373C48.3684 18.8483 48.3642 18.9627 48.3642 19.078C48.3642 19.2317 48.3698 19.3845 48.3777 19.5364H48.322C47.5 19.5364 46.8325 20.1943 46.8325 21.0055C46.8325 21.8172 47.5 22.4746 48.322 22.4746H49.0971C50.4205 25.4056 53.4004 27.4543 56.8571 27.4543Z" fill="black"/>
<path d="M58.4148 59.8853L58.36 59.8981C57.5594 60.0852 57.064 60.8767 57.2533 61.6664C57.4156 62.3426 58.0265 62.7979 58.7024 62.7979C58.816 62.7979 58.9311 62.7846 59.0466 62.7576L59.1013 62.7452C59.9019 62.5581 60.3969 61.7666 60.2081 60.9769C60.0184 60.1873 59.2154 59.6991 58.4148 59.8853Z" fill="black"/>
</svg>
