<svg width="1139" height="163" viewBox="0 0 1139 163" fill="none" xmlns="http://www.w3.org/2000/svg">
<mask id="path-1-outside-1" maskUnits="userSpaceOnUse" x="0" y="0" width="1139" height="163" fill="black">
<rect fill="white" width="1139" height="163"/>
<path d="M32.8114 76.9029H43.0731C53.1296 76.9029 60.5522 75.2343 65.3411 71.8972C70.1299 68.5601 72.5243 63.316 72.5243 56.165C72.5243 49.0821 70.0615 44.0423 65.1358 41.0457C60.2786 38.0491 52.7191 36.5508 42.4574 36.5508H32.8114V76.9029ZM32.8114 102.647V159.957H1V10.6028H44.715C65.1016 10.6028 80.1864 14.3145 89.9692 21.7379C99.7521 29.0933 104.644 40.2965 104.644 55.3477C104.644 64.1332 102.215 71.9653 97.3577 78.8439C92.5004 85.6544 85.6251 91.0006 76.7316 94.8826C99.3074 128.458 114.016 150.15 120.857 159.957H85.5567L49.7432 102.647H32.8114Z"/>
<path d="M184.788 65.7678C178.152 65.7678 172.952 67.879 169.19 72.1015C165.427 76.2559 163.272 82.181 162.725 89.8769H206.645C206.508 82.181 204.49 76.2559 200.591 72.1015C196.691 67.879 191.424 65.7678 184.788 65.7678ZM189.2 162C170.729 162 156.294 156.926 145.896 146.779C135.497 136.631 130.298 122.261 130.298 103.668C130.298 84.5307 135.087 69.7519 144.664 59.3318C154.31 48.8437 167.616 43.5996 184.582 43.5996C200.796 43.5996 213.418 48.1967 222.448 57.3909C231.479 66.585 235.994 79.2866 235.994 95.4956V110.615H162.007C162.349 119.468 164.982 126.381 169.908 131.353C174.834 136.324 181.743 138.81 190.637 138.81C197.546 138.81 204.08 138.095 210.237 136.665C216.394 135.235 222.824 132.953 229.529 129.82V153.93C224.056 156.654 218.207 158.663 211.981 159.957C205.756 161.319 198.162 162 189.2 162Z"/>
<path d="M334.301 159.957L328.247 144.429H327.426C322.158 151.035 316.719 155.632 311.11 158.22C305.568 160.74 298.317 162 289.355 162C278.34 162 269.652 158.867 263.29 152.602C256.996 146.336 253.849 137.414 253.849 125.836C253.849 113.714 258.091 104.792 266.574 99.0711C275.125 93.2821 287.986 90.0812 305.158 89.4683L325.066 88.8553V83.8496C325.066 72.2718 319.114 66.4829 307.21 66.4829C298.043 66.4829 287.268 69.2411 274.886 74.7576L264.521 53.7132C277.725 46.8346 292.365 43.3953 308.441 43.3953C323.834 43.3953 335.635 46.7324 343.844 53.4067C352.054 60.081 356.159 70.2286 356.159 83.8496V159.957H334.301ZM325.066 107.039L312.957 107.448C303.858 107.72 297.085 109.355 292.638 112.352C288.192 115.348 285.968 119.911 285.968 126.041C285.968 134.826 291.031 139.219 301.156 139.219C308.407 139.219 314.188 137.142 318.498 132.987C322.876 128.833 325.066 123.316 325.066 116.438V107.039Z"/>
<path d="M419.781 159.957H388.483V1H419.781V159.957Z"/>
<path d="M596.18 159.957H509.777V10.6028H596.18V36.5508H541.588V69.3433H592.384V95.2912H541.588V133.805H596.18V159.957Z"/>
<path d="M705.16 126.041C705.16 137.755 701.055 146.676 692.846 152.806C684.705 158.935 672.494 162 656.212 162C647.865 162 640.751 161.421 634.867 160.263C628.984 159.174 623.477 157.539 618.346 155.36V129.616C624.161 132.34 630.694 134.622 637.946 136.461C645.266 138.299 651.696 139.219 657.238 139.219C668.594 139.219 674.272 135.95 674.272 129.412C674.272 126.96 673.52 124.985 672.015 123.487C670.51 121.92 667.91 120.184 664.216 118.277C660.521 116.302 655.596 114.02 649.439 111.432C640.614 107.754 634.115 104.349 629.942 101.216C625.837 98.0835 622.827 94.508 620.911 90.4898C619.064 86.4035 618.141 81.3978 618.141 75.4727C618.141 65.3251 622.074 57.493 629.942 51.9765C637.877 46.3919 649.097 43.5996 663.6 43.5996C677.419 43.5996 690.862 46.5962 703.929 52.5895L694.488 75.0641C688.741 72.6123 683.371 70.6032 678.377 69.0368C673.383 67.4704 668.286 66.6872 663.087 66.6872C653.851 66.6872 649.234 69.173 649.234 74.1447C649.234 76.937 650.704 79.3547 653.646 81.3978C656.656 83.441 663.19 86.4717 673.246 90.4898C682.208 94.0994 688.776 97.4706 692.949 100.603C697.122 103.736 700.2 107.346 702.184 111.432C704.168 115.518 705.16 120.388 705.16 126.041Z"/>
<path d="M777.916 137.176C783.389 137.176 789.956 135.984 797.618 133.6V156.79C789.819 160.263 780.242 162 768.885 162C756.366 162 747.233 158.867 741.487 152.602C735.808 146.268 732.969 136.801 732.969 124.202V69.139H717.987V55.9607L735.227 45.5406L744.257 21.4315H764.268V45.7449H796.387V69.139H764.268V124.202C764.268 128.629 765.499 131.898 767.962 134.009C770.493 136.12 773.811 137.176 777.916 137.176Z"/>
<path d="M893.771 159.957L887.716 144.429H886.895C881.628 151.035 876.189 155.632 870.579 158.22C865.038 160.74 857.786 162 848.824 162C837.81 162 829.122 158.867 822.76 152.602C816.466 146.336 813.319 137.414 813.319 125.836C813.319 113.714 817.56 104.792 826.043 99.0711C834.595 93.2821 847.456 90.0812 864.627 89.4683L884.535 88.8553V83.8496C884.535 72.2718 878.583 66.4829 866.68 66.4829C857.513 66.4829 846.738 69.2411 834.355 74.7576L823.991 53.7132C837.194 46.8346 851.834 43.3953 867.911 43.3953C883.304 43.3953 895.105 46.7324 903.314 53.4067C911.523 60.081 915.628 70.2286 915.628 83.8496V159.957H893.771ZM884.535 107.039L872.426 107.448C863.328 107.72 856.555 109.355 852.108 112.352C847.661 115.348 845.438 119.911 845.438 126.041C845.438 134.826 850.5 139.219 860.625 139.219C867.877 139.219 873.658 137.142 877.968 132.987C882.346 128.833 884.535 123.316 884.535 116.438V107.039Z"/>
<path d="M996.285 137.176C1001.76 137.176 1008.33 135.984 1015.99 133.6V156.79C1008.19 160.263 998.611 162 987.255 162C974.736 162 965.603 158.867 959.856 152.602C954.178 146.268 951.339 136.801 951.339 124.202V69.139H936.357V55.9607L953.597 45.5406L962.627 21.4315H982.637V45.7449H1014.76V69.139H982.637V124.202C982.637 128.629 983.869 131.898 986.332 134.009C988.863 136.12 992.181 137.176 996.285 137.176Z"/>
<path d="M1086.79 65.7678C1080.16 65.7678 1074.96 67.879 1071.2 72.1015C1067.43 76.2559 1065.28 82.181 1064.73 89.8769H1108.65C1108.51 82.181 1106.5 76.2559 1102.6 72.1015C1098.7 67.879 1093.43 65.7678 1086.79 65.7678ZM1091.21 162C1072.74 162 1058.3 156.926 1047.9 146.779C1037.5 136.631 1032.3 122.261 1032.3 103.668C1032.3 84.5307 1037.09 69.7519 1046.67 59.3318C1056.32 48.8437 1069.62 43.5996 1086.59 43.5996C1102.8 43.5996 1115.42 48.1967 1124.45 57.3909C1133.48 66.585 1138 79.2866 1138 95.4956V110.615H1064.01C1064.35 119.468 1066.99 126.381 1071.91 131.353C1076.84 136.324 1083.75 138.81 1092.64 138.81C1099.55 138.81 1106.09 138.095 1112.24 136.665C1118.4 135.235 1124.83 132.953 1131.54 129.82V153.93C1126.06 156.654 1120.21 158.663 1113.99 159.957C1107.76 161.319 1100.17 162 1091.21 162Z"/>
</mask>
<path d="M32.8114 76.9029H43.0731C53.1296 76.9029 60.5522 75.2343 65.3411 71.8972C70.1299 68.5601 72.5243 63.316 72.5243 56.165C72.5243 49.0821 70.0615 44.0423 65.1358 41.0457C60.2786 38.0491 52.7191 36.5508 42.4574 36.5508H32.8114V76.9029ZM32.8114 102.647V159.957H1V10.6028H44.715C65.1016 10.6028 80.1864 14.3145 89.9692 21.7379C99.7521 29.0933 104.644 40.2965 104.644 55.3477C104.644 64.1332 102.215 71.9653 97.3577 78.8439C92.5004 85.6544 85.6251 91.0006 76.7316 94.8826C99.3074 128.458 114.016 150.15 120.857 159.957H85.5567L49.7432 102.647H32.8114Z" stroke="black" stroke-opacity="0.15" stroke-width="2" mask="url(#path-1-outside-1)"/>
<path d="M184.788 65.7678C178.152 65.7678 172.952 67.879 169.19 72.1015C165.427 76.2559 163.272 82.181 162.725 89.8769H206.645C206.508 82.181 204.49 76.2559 200.591 72.1015C196.691 67.879 191.424 65.7678 184.788 65.7678ZM189.2 162C170.729 162 156.294 156.926 145.896 146.779C135.497 136.631 130.298 122.261 130.298 103.668C130.298 84.5307 135.087 69.7519 144.664 59.3318C154.31 48.8437 167.616 43.5996 184.582 43.5996C200.796 43.5996 213.418 48.1967 222.448 57.3909C231.479 66.585 235.994 79.2866 235.994 95.4956V110.615H162.007C162.349 119.468 164.982 126.381 169.908 131.353C174.834 136.324 181.743 138.81 190.637 138.81C197.546 138.81 204.08 138.095 210.237 136.665C216.394 135.235 222.824 132.953 229.529 129.82V153.93C224.056 156.654 218.207 158.663 211.981 159.957C205.756 161.319 198.162 162 189.2 162Z" stroke="black" stroke-opacity="0.15" stroke-width="2" mask="url(#path-1-outside-1)"/>
<path d="M334.301 159.957L328.247 144.429H327.426C322.158 151.035 316.719 155.632 311.11 158.22C305.568 160.74 298.317 162 289.355 162C278.34 162 269.652 158.867 263.29 152.602C256.996 146.336 253.849 137.414 253.849 125.836C253.849 113.714 258.091 104.792 266.574 99.0711C275.125 93.2821 287.986 90.0812 305.158 89.4683L325.066 88.8553V83.8496C325.066 72.2718 319.114 66.4829 307.21 66.4829C298.043 66.4829 287.268 69.2411 274.886 74.7576L264.521 53.7132C277.725 46.8346 292.365 43.3953 308.441 43.3953C323.834 43.3953 335.635 46.7324 343.844 53.4067C352.054 60.081 356.159 70.2286 356.159 83.8496V159.957H334.301ZM325.066 107.039L312.957 107.448C303.858 107.72 297.085 109.355 292.638 112.352C288.192 115.348 285.968 119.911 285.968 126.041C285.968 134.826 291.031 139.219 301.156 139.219C308.407 139.219 314.188 137.142 318.498 132.987C322.876 128.833 325.066 123.316 325.066 116.438V107.039Z" stroke="black" stroke-opacity="0.15" stroke-width="2" mask="url(#path-1-outside-1)"/>
<path d="M419.781 159.957H388.483V1H419.781V159.957Z" stroke="black" stroke-opacity="0.15" stroke-width="2" mask="url(#path-1-outside-1)"/>
<path d="M596.18 159.957H509.777V10.6028H596.18V36.5508H541.588V69.3433H592.384V95.2912H541.588V133.805H596.18V159.957Z" stroke="black" stroke-opacity="0.15" stroke-width="2" mask="url(#path-1-outside-1)"/>
<path d="M705.16 126.041C705.16 137.755 701.055 146.676 692.846 152.806C684.705 158.935 672.494 162 656.212 162C647.865 162 640.751 161.421 634.867 160.263C628.984 159.174 623.477 157.539 618.346 155.36V129.616C624.161 132.34 630.694 134.622 637.946 136.461C645.266 138.299 651.696 139.219 657.238 139.219C668.594 139.219 674.272 135.95 674.272 129.412C674.272 126.96 673.52 124.985 672.015 123.487C670.51 121.92 667.91 120.184 664.216 118.277C660.521 116.302 655.596 114.02 649.439 111.432C640.614 107.754 634.115 104.349 629.942 101.216C625.837 98.0835 622.827 94.508 620.911 90.4898C619.064 86.4035 618.141 81.3978 618.141 75.4727C618.141 65.3251 622.074 57.493 629.942 51.9765C637.877 46.3919 649.097 43.5996 663.6 43.5996C677.419 43.5996 690.862 46.5962 703.929 52.5895L694.488 75.0641C688.741 72.6123 683.371 70.6032 678.377 69.0368C673.383 67.4704 668.286 66.6872 663.087 66.6872C653.851 66.6872 649.234 69.173 649.234 74.1447C649.234 76.937 650.704 79.3547 653.646 81.3978C656.656 83.441 663.19 86.4717 673.246 90.4898C682.208 94.0994 688.776 97.4706 692.949 100.603C697.122 103.736 700.2 107.346 702.184 111.432C704.168 115.518 705.16 120.388 705.16 126.041Z" stroke="black" stroke-opacity="0.15" stroke-width="2" mask="url(#path-1-outside-1)"/>
<path d="M777.916 137.176C783.389 137.176 789.956 135.984 797.618 133.6V156.79C789.819 160.263 780.242 162 768.885 162C756.366 162 747.233 158.867 741.487 152.602C735.808 146.268 732.969 136.801 732.969 124.202V69.139H717.987V55.9607L735.227 45.5406L744.257 21.4315H764.268V45.7449H796.387V69.139H764.268V124.202C764.268 128.629 765.499 131.898 767.962 134.009C770.493 136.12 773.811 137.176 777.916 137.176Z" stroke="black" stroke-opacity="0.15" stroke-width="2" mask="url(#path-1-outside-1)"/>
<path d="M893.771 159.957L887.716 144.429H886.895C881.628 151.035 876.189 155.632 870.579 158.22C865.038 160.74 857.786 162 848.824 162C837.81 162 829.122 158.867 822.76 152.602C816.466 146.336 813.319 137.414 813.319 125.836C813.319 113.714 817.56 104.792 826.043 99.0711C834.595 93.2821 847.456 90.0812 864.627 89.4683L884.535 88.8553V83.8496C884.535 72.2718 878.583 66.4829 866.68 66.4829C857.513 66.4829 846.738 69.2411 834.355 74.7576L823.991 53.7132C837.194 46.8346 851.834 43.3953 867.911 43.3953C883.304 43.3953 895.105 46.7324 903.314 53.4067C911.523 60.081 915.628 70.2286 915.628 83.8496V159.957H893.771ZM884.535 107.039L872.426 107.448C863.328 107.72 856.555 109.355 852.108 112.352C847.661 115.348 845.438 119.911 845.438 126.041C845.438 134.826 850.5 139.219 860.625 139.219C867.877 139.219 873.658 137.142 877.968 132.987C882.346 128.833 884.535 123.316 884.535 116.438V107.039Z" stroke="black" stroke-opacity="0.15" stroke-width="2" mask="url(#path-1-outside-1)"/>
<path d="M996.285 137.176C1001.76 137.176 1008.33 135.984 1015.99 133.6V156.79C1008.19 160.263 998.611 162 987.255 162C974.736 162 965.603 158.867 959.856 152.602C954.178 146.268 951.339 136.801 951.339 124.202V69.139H936.357V55.9607L953.597 45.5406L962.627 21.4315H982.637V45.7449H1014.76V69.139H982.637V124.202C982.637 128.629 983.869 131.898 986.332 134.009C988.863 136.12 992.181 137.176 996.285 137.176Z" stroke="black" stroke-opacity="0.15" stroke-width="2" mask="url(#path-1-outside-1)"/>
<path d="M1086.79 65.7678C1080.16 65.7678 1074.96 67.879 1071.2 72.1015C1067.43 76.2559 1065.28 82.181 1064.73 89.8769H1108.65C1108.51 82.181 1106.5 76.2559 1102.6 72.1015C1098.7 67.879 1093.43 65.7678 1086.79 65.7678ZM1091.21 162C1072.74 162 1058.3 156.926 1047.9 146.779C1037.5 136.631 1032.3 122.261 1032.3 103.668C1032.3 84.5307 1037.09 69.7519 1046.67 59.3318C1056.32 48.8437 1069.62 43.5996 1086.59 43.5996C1102.8 43.5996 1115.42 48.1967 1124.45 57.3909C1133.48 66.585 1138 79.2866 1138 95.4956V110.615H1064.01C1064.35 119.468 1066.99 126.381 1071.91 131.353C1076.84 136.324 1083.75 138.81 1092.64 138.81C1099.55 138.81 1106.09 138.095 1112.24 136.665C1118.4 135.235 1124.83 132.953 1131.54 129.82V153.93C1126.06 156.654 1120.21 158.663 1113.99 159.957C1107.76 161.319 1100.17 162 1091.21 162Z" stroke="black" stroke-opacity="0.15" stroke-width="2" mask="url(#path-1-outside-1)"/>
</svg>
