<svg width="159" height="59" viewBox="0 0 159 59" fill="none" xmlns="http://www.w3.org/2000/svg">
<path d="M7.36031 16.196C8.10273 16.196 8.7214 16.3246 9.34008 16.4531C9.95876 16.5817 10.4537 16.8387 10.8249 17.0958C11.1961 17.3529 11.5673 17.8671 11.8148 18.2527C12.0623 18.7669 12.186 19.4096 12.186 20.1808C12.186 20.952 12.0623 21.5947 11.6911 22.2374C11.3199 22.7516 10.8249 23.2658 10.0825 23.5228C11.0724 23.7799 11.6911 24.2941 12.186 25.0653C12.6809 25.708 12.9284 26.6078 12.9284 27.6361C12.9284 28.4074 12.8047 29.1786 12.4335 29.6928C12.186 30.3355 11.6911 30.7211 11.1961 31.1067C10.7012 31.4923 10.0825 31.7494 9.46382 31.878C8.96888 32.0065 8.22646 32.135 7.60779 32.135H0.183655V16.196H7.36031ZM6.98911 22.6231C7.60779 22.6231 8.10273 22.4945 8.47393 22.2374C8.84514 21.9804 9.09261 21.4662 9.09261 20.8235C9.09261 20.4379 8.96888 20.1808 8.84514 19.9237C8.72141 19.6666 8.59767 19.5381 8.3502 19.4096C8.10273 19.281 7.85526 19.1525 7.60779 19.1525C7.36032 19.1525 6.98911 19.0239 6.74164 19.0239H3.52451V22.7516H6.98911V22.6231ZM7.11284 29.4357C7.48405 29.4357 7.73152 29.4357 8.10273 29.3072C8.3502 29.1786 8.72141 29.1786 8.84514 28.9215C9.09261 28.793 9.21635 28.5359 9.34008 28.2788C9.46382 28.0218 9.58755 27.6361 9.58755 27.2505C9.58755 26.4793 9.34008 25.8366 8.96888 25.4509C8.47393 25.0653 7.97899 24.9368 7.23658 24.9368H3.52451V29.3072H7.11284V29.4357Z" fill="#2F3234"/>
<path d="M18.1253 16.196V32.135H15.0319V16.196H18.1253Z" fill="#2F3234"/>
<path d="M20.3526 24.1657C20.3526 23.3944 20.6001 22.7517 20.8475 22.3661C21.2187 21.8519 21.5899 21.4663 22.0849 21.2092C22.5798 20.9522 23.0748 20.6951 23.6934 20.5665C24.3121 20.438 24.9308 20.438 25.5495 20.438C26.1681 20.438 26.6631 20.438 27.2818 20.5665C27.9004 20.6951 28.3954 20.8236 28.8903 21.0807C29.3853 21.3378 29.7565 21.5949 30.0039 22.109C30.2514 22.4946 30.4989 23.1373 30.4989 23.78V29.5644C30.4989 30.0785 30.4989 30.5927 30.6226 31.1068C30.6226 31.621 30.7463 31.8781 30.8701 32.1352H27.7767C27.7767 32.0066 27.653 31.7495 27.653 31.621C27.653 31.4925 27.653 31.2354 27.5292 31.1068C27.0343 31.621 26.4156 32.0066 25.7969 32.2637C25.1783 32.5208 24.4358 32.5208 23.8172 32.5208C23.3222 32.5208 22.8273 32.3922 22.3323 32.2637C21.8374 32.1352 21.4662 31.8781 21.095 31.621C20.7238 31.3639 20.4763 30.9783 20.2289 30.5927C19.9814 30.2071 19.9814 29.6929 19.9814 29.0502C19.9814 28.4075 20.1051 27.8933 20.3526 27.3792C20.6001 26.9935 20.8475 26.6079 21.2187 26.3508C21.5899 26.0938 21.9611 25.9652 22.4561 25.8367C22.951 25.7081 23.3222 25.5796 23.8172 25.5796C24.3121 25.5796 24.6833 25.4511 25.1783 25.4511C25.6732 25.4511 26.0444 25.3225 26.4156 25.194C26.7868 25.0654 27.0343 24.9369 27.2818 24.8084C27.5292 24.6798 27.5292 24.4227 27.5292 24.0371C27.5292 23.6515 27.5292 23.3944 27.4055 23.2659C27.2818 23.0088 27.158 22.8803 27.0343 22.7517C26.9106 22.6232 26.6631 22.6232 26.4156 22.4946C26.1681 22.4946 25.9207 22.4946 25.6732 22.4946C25.0545 22.4946 24.5596 22.6232 24.3121 22.8803C24.0646 23.1373 23.8172 23.6515 23.6934 24.1657H20.3526ZM27.4055 26.4794C27.2818 26.6079 27.158 26.7365 26.9106 26.7365C26.6631 26.865 26.5393 26.865 26.2919 26.865C26.0444 26.865 25.7969 26.9935 25.5495 26.9935C25.302 26.9935 25.0545 27.1221 24.8071 27.1221C24.5596 27.1221 24.3121 27.2506 24.1884 27.2506C23.9409 27.3792 23.8172 27.3792 23.5697 27.5077C23.446 27.6362 23.3222 27.7648 23.1985 28.0219C23.0748 28.2789 23.0748 28.4075 23.0748 28.7931C23.0748 29.0502 23.0748 29.3073 23.1985 29.5644C23.3222 29.8214 23.446 29.95 23.5697 30.0785C23.6934 30.2071 23.9409 30.2071 24.1884 30.3356C24.4358 30.3356 24.6833 30.4641 24.9308 30.4641C25.5495 30.4641 26.0444 30.3356 26.2919 30.2071C26.6631 29.95 26.9106 29.6929 27.0343 29.4358C27.158 29.1787 27.2818 28.7931 27.2818 28.536C27.2818 28.279 27.2818 28.0219 27.2818 27.7648V26.4794H27.4055Z" fill="#2F3234"/>
<path d="M38.1704 22.6231C37.6755 22.6231 37.3043 22.7516 36.9331 23.0087C36.5619 23.2658 36.3144 23.5228 36.067 23.9085C35.8195 24.2941 35.6957 24.6797 35.572 25.0653C35.4483 25.4509 35.4483 25.9651 35.4483 26.3507C35.4483 26.7363 35.4483 27.2505 35.572 27.6361C35.6957 28.0217 35.8195 28.4074 35.9432 28.793C36.1907 29.1786 36.4382 29.4357 36.6856 29.6928C37.0568 29.9498 37.428 30.0784 37.923 30.0784C38.6654 30.0784 39.1603 29.8213 39.6553 29.4357C40.0265 29.0501 40.274 28.4074 40.3977 27.7647H43.3673C43.1199 29.3071 42.6249 30.464 41.635 31.2352C40.6452 32.0065 39.5315 32.3921 38.0467 32.3921C37.1806 32.3921 36.4382 32.2636 35.8195 32.0065C35.0771 31.7494 34.5821 31.3638 34.0872 30.8496C33.5922 30.3355 33.221 29.6928 32.9736 29.0501C32.7261 28.2788 32.6024 27.5076 32.6024 26.7363C32.6024 25.8366 32.7261 25.0653 32.9736 24.2941C33.221 23.5228 33.5922 22.8801 34.0872 22.366C34.5821 21.8518 35.2008 21.3376 35.8195 21.0806C36.5619 20.8235 37.3043 20.5664 38.1704 20.5664C38.7891 20.5664 39.4078 20.6949 40.0265 20.8235C40.6452 20.952 41.1401 21.2091 41.635 21.5947C42.13 21.9803 42.5012 22.366 42.7487 23.0087C42.9961 23.6514 43.2436 24.1655 43.2436 24.9368H40.274C40.1502 23.3943 39.4078 22.6231 38.1704 22.6231Z" fill="#2F3234"/>
<path d="M48.4405 16.196V24.6797L52.2763 20.5664H55.9884L51.7813 24.8082L56.4833 32.135H52.7712L49.6778 26.9934L48.4405 28.1503V32.135H45.3471V16.196H48.4405Z" fill="#2F3234"/>
<path d="M60.0716 29.3073C60.1954 29.5643 60.4428 29.6929 60.5666 29.95C60.814 30.0785 61.0615 30.207 61.309 30.3356C61.5564 30.4641 61.9277 30.4641 62.1751 30.4641C62.4226 30.4641 62.6701 30.4641 62.7938 30.3356C62.9175 30.207 63.2887 30.207 63.4125 30.0785C63.6599 29.95 63.7837 29.8214 63.9074 29.6929C64.0312 29.5643 64.1549 29.3073 64.1549 29.0502C64.1549 28.536 63.9074 28.2789 63.2887 28.0219C62.6701 27.7648 61.8039 27.5077 60.6903 27.2506C60.1954 27.1221 59.8242 26.9935 59.4529 26.865C59.0817 26.7365 58.7105 26.4794 58.3393 26.3508C57.9681 26.0938 57.7206 25.8367 57.5969 25.4511C57.3494 25.0654 57.3494 24.6798 57.3494 24.1657C57.3494 23.3944 57.4732 22.7517 57.7206 22.3661C57.9681 21.8519 58.3393 21.4663 58.8343 21.2092C59.3292 20.9521 59.8241 20.6951 60.3191 20.5665C60.814 20.438 61.4327 20.438 62.0514 20.438C62.6701 20.438 63.2887 20.438 63.7837 20.5665C64.4024 20.6951 64.8973 20.8236 65.2685 21.2092C65.7635 21.4663 66.1347 21.8519 66.3821 22.3661C66.6296 22.8803 66.8771 23.3944 66.8771 24.1657H64.0312C64.0312 23.523 63.7837 23.1373 63.4125 22.8803C63.0413 22.6232 62.5463 22.4946 62.0514 22.4946C61.9277 22.4946 61.6802 22.4946 61.4327 22.4946C61.1852 22.4946 61.0615 22.6232 60.9378 22.6232C60.814 22.7517 60.6903 22.7517 60.5666 23.0088C60.4428 23.1373 60.4428 23.3944 60.4428 23.523C60.4428 23.78 60.5666 24.0371 60.6903 24.1657C60.9378 24.2942 61.1852 24.5513 61.4327 24.5513C61.8039 24.6798 62.1751 24.8084 62.5463 24.8084C62.9175 24.9369 63.4125 24.9369 63.7837 25.0654C64.2786 25.194 64.6498 25.3225 65.021 25.4511C65.3922 25.5796 65.7634 25.8367 66.1347 26.0938C66.5059 26.3508 66.7533 26.6079 66.8771 26.9935C67.0008 27.3792 67.1245 27.7648 67.1245 28.2789C67.1245 29.0502 67.0008 29.6929 66.6296 30.207C66.3821 30.7212 66.0109 31.1068 65.516 31.4925C65.021 31.7495 64.5261 32.0066 63.9074 32.1352C63.2887 32.2637 62.6701 32.2637 62.0514 32.2637C61.4327 32.2637 60.814 32.1352 60.1954 32.0066C59.5767 31.8781 59.0817 31.621 58.5868 31.3639C58.0918 31.1068 57.7206 30.5927 57.3494 30.0785C57.102 29.5643 56.8545 28.9216 56.8545 28.1504H59.7004C59.8241 28.7931 59.9479 29.0502 60.0716 29.3073Z" fill="#2F3234"/>
<path d="M72.0739 16.196V22.2374C72.4451 21.5947 72.94 21.0806 73.5587 20.8235C74.1774 20.5664 74.7961 20.3093 75.291 20.3093C76.1572 20.3093 76.7758 20.4379 77.2708 20.695C77.7657 20.952 78.2607 21.2091 78.5081 21.5947C78.7556 21.9804 79.0031 22.4945 79.1268 23.1372C79.2505 23.7799 79.2505 24.4226 79.2505 25.0653V32.135H76.1572V25.5795C76.1572 24.6797 76.0334 23.9085 75.7859 23.3943C75.5385 22.8801 75.0435 22.7516 74.3011 22.7516C73.435 22.7516 72.8163 23.0087 72.4451 23.5228C72.0739 24.037 71.8264 24.9368 71.8264 26.0936V32.135H68.733V16.196H72.0739Z" fill="#2F3234"/>
<path d="M81.8491 18.7669V16.196H84.9424V18.7669H81.8491ZM84.9424 20.5664V32.135H81.8491V20.5664H84.9424Z" fill="#2F3234"/>
<path d="M90.5105 29.4358C91.0054 29.95 91.6241 30.0785 92.4903 30.0785C93.1089 30.0785 93.6039 29.95 94.0988 29.5644C94.5938 29.3073 94.8412 28.9217 94.965 28.536H97.6871C97.3159 29.95 96.5735 30.8498 95.7074 31.4925C94.8412 32.1352 93.7276 32.3922 92.4903 32.3922C91.6241 32.3922 90.8817 32.2637 90.1393 32.0066C89.3969 31.7495 88.9019 31.3639 88.407 30.7212C87.9121 30.2071 87.5409 29.5644 87.2934 28.7931C87.0459 28.0219 86.9222 27.2506 86.9222 26.3508C86.9222 25.4511 87.0459 24.6798 87.2934 23.9086C87.5409 23.1373 87.9121 22.4946 88.407 21.9805C88.9019 21.4663 89.5206 20.9522 90.1393 20.6951C90.8817 20.438 91.6241 20.1809 92.4903 20.1809C93.4801 20.1809 94.2225 20.3094 94.965 20.6951C95.7074 21.0807 96.2023 21.5949 96.6973 22.2376C97.1922 22.8803 97.4397 23.6515 97.6871 24.4227C97.9346 25.194 97.9346 26.0938 97.9346 26.9935H89.8918C89.8918 28.1504 90.1393 28.9217 90.5105 29.4358ZM93.9751 23.2659C93.6039 22.8803 93.1089 22.6232 92.3665 22.6232C91.8716 22.6232 91.5004 22.7517 91.1292 22.8803C90.758 23.0088 90.5105 23.2659 90.3868 23.523C90.1393 23.78 90.0156 24.0371 90.0156 24.2942C89.8918 24.5513 89.8918 24.8084 89.8918 25.0654H94.8412C94.5938 24.2942 94.3463 23.78 93.9751 23.2659Z" fill="#2F3234"/>
<path d="M102.76 16.196V32.135H99.6669V16.196H102.76Z" fill="#2F3234"/>
<path d="M113.03 30.7211C112.659 31.3638 112.164 31.7494 111.669 32.0065C111.051 32.2636 110.432 32.3921 109.689 32.3921C108.823 32.3921 108.081 32.2636 107.462 31.878C106.844 31.4923 106.349 31.1067 105.854 30.464C105.482 29.9499 105.111 29.1786 104.988 28.5359C104.74 27.7647 104.616 26.9934 104.616 26.2222C104.616 25.451 104.74 24.6797 104.988 24.037C105.235 23.2658 105.482 22.6231 105.854 22.1089C106.225 21.5947 106.72 21.0806 107.339 20.8235C107.957 20.4379 108.7 20.3093 109.442 20.3093C110.061 20.3093 110.679 20.4379 111.298 20.695C111.917 20.952 112.412 21.4662 112.659 21.9804V16.196H115.753V32.1351H112.907L113.03 30.7211ZM112.907 24.9368C112.783 24.5512 112.659 24.1655 112.412 23.7799C112.164 23.3943 111.917 23.1372 111.546 23.0087C111.174 22.7516 110.803 22.7516 110.308 22.7516C109.813 22.7516 109.442 22.8801 109.071 23.0087C108.7 23.2658 108.452 23.5228 108.205 23.7799C107.957 24.1655 107.833 24.5512 107.71 24.9368C107.586 25.3224 107.586 25.8366 107.586 26.3507C107.586 26.7364 107.586 27.2505 107.71 27.6361C107.833 28.0218 107.957 28.5359 108.205 28.793C108.452 29.1786 108.7 29.4357 109.071 29.6928C109.442 29.9499 109.813 30.0784 110.308 30.0784C110.803 30.0784 111.174 29.9499 111.546 29.8213C111.917 29.5642 112.164 29.3072 112.412 28.9215C112.659 28.5359 112.783 28.1503 112.783 27.7647C112.907 27.3791 112.907 26.8649 112.907 26.3507C112.907 25.8366 113.03 25.451 112.907 24.9368Z" fill="#2F3234"/>
<path d="M1.15532 49.6168V53.8604H0V43.6561H2.7252C3.94396 43.6561 4.8433 43.8957 5.42322 44.375C6.00768 44.8543 6.29991 45.5755 6.29991 46.5387C6.29991 47.8881 5.6339 48.8001 4.30188 49.2747L6.9999 53.8604H5.6339L3.22811 49.6168H1.15532ZM1.15532 48.5977H2.7388C3.55432 48.5977 4.15237 48.4325 4.53295 48.1022C4.91352 47.7671 5.10381 47.2669 5.10381 46.6015C5.10381 45.9268 4.90899 45.4406 4.51935 45.1428C4.13425 44.845 3.51354 44.6961 2.65724 44.6961H1.15532V48.5977Z" fill="black"/>
<path d="M11.5804 54C10.4795 54 9.60957 53.6557 8.97075 52.967C8.33645 52.2783 8.0193 51.3221 8.0193 50.0984C8.0193 48.8653 8.3138 47.8858 8.90279 47.1599C9.49631 46.434 10.2914 46.0711 11.2882 46.0711C12.2215 46.0711 12.96 46.3875 13.5037 47.0203C14.0474 47.6485 14.3192 48.4791 14.3192 49.5121V50.2449H9.18822C9.21087 51.143 9.43061 51.8247 9.84743 52.29C10.2688 52.7553 10.86 52.9879 11.6212 52.9879C12.4231 52.9879 13.216 52.8158 13.9998 52.4714V53.5044C13.6011 53.6813 13.2228 53.8069 12.8649 53.8813C12.5115 53.9604 12.0833 54 11.5804 54ZM11.2746 47.0412C10.6765 47.0412 10.1986 47.2413 9.84064 47.6415C9.48725 48.0417 9.27883 48.5954 9.2154 49.3027H13.1095C13.1095 48.5721 12.951 48.0137 12.6338 47.6275C12.3167 47.2367 11.8636 47.0412 11.2746 47.0412Z" fill="black"/>
<path d="M20.8298 53.8604L20.6055 52.7716H20.5512C20.1797 53.2508 19.8081 53.5766 19.4366 53.7487C19.0696 53.9162 18.6098 54 18.057 54C17.3185 54 16.7386 53.8046 16.3172 53.4137C15.9004 53.0228 15.692 52.4668 15.692 51.7456C15.692 50.2007 16.8949 49.3911 19.3007 49.3166L20.5648 49.2747V48.8001C20.5648 48.1999 20.4379 47.7578 20.1842 47.474C19.935 47.1855 19.534 47.0412 18.9813 47.0412C18.3606 47.0412 17.6583 47.2367 16.8745 47.6275L16.5279 46.7411C16.8949 46.5364 17.2959 46.3758 17.7308 46.2595C18.1703 46.1432 18.6098 46.085 19.0492 46.085C19.9373 46.085 20.5942 46.2874 21.0201 46.6923C21.4505 47.0971 21.6657 47.7462 21.6657 48.6396V53.8604H20.8298ZM18.2813 53.0438C18.9836 53.0438 19.534 52.846 19.9327 52.4505C20.336 52.055 20.5376 51.5013 20.5376 50.7893V50.0984L19.4094 50.1472C18.5124 50.1798 17.8645 50.324 17.4658 50.5799C17.0716 50.8312 16.8745 51.2244 16.8745 51.7595C16.8745 52.1783 16.9968 52.497 17.2415 52.7157C17.4907 52.9344 17.8373 53.0438 18.2813 53.0438Z" fill="black"/>
<path d="M25.1249 53.8604H23.9967V43H25.1249V53.8604Z" fill="black"/>
<path d="M36.8412 53.8604H31.3025V43.6561H36.8412V44.71H32.4578V47.9975H36.5762V49.0444H32.4578V52.7995H36.8412V53.8604Z" fill="black"/>
<path d="M43.6848 51.7735C43.6848 52.4854 43.4266 53.0345 42.9101 53.4207C42.3936 53.8069 41.6687 54 40.7353 54C39.7477 54 38.9774 53.8395 38.4247 53.5184V52.4435C38.7826 52.6297 39.1655 52.7762 39.5732 52.8832C39.9855 52.9903 40.382 53.0438 40.7625 53.0438C41.3515 53.0438 41.8046 52.9484 42.1217 52.7576C42.4389 52.5622 42.5975 52.2667 42.5975 51.8712C42.5975 51.5734 42.4706 51.3198 42.2169 51.1104C41.9677 50.8964 41.4784 50.6451 40.7489 50.3566C40.0557 50.0914 39.5619 49.861 39.2674 49.6656C38.9774 49.4655 38.76 49.2398 38.615 48.9886C38.4745 48.7373 38.4043 48.4372 38.4043 48.0882C38.4043 47.4647 38.6512 46.9738 39.1451 46.6155C39.6389 46.2525 40.3163 46.0711 41.1771 46.0711C41.979 46.0711 42.7628 46.2386 43.5285 46.5736L43.1275 47.5159C42.38 47.1995 41.7026 47.0412 41.0955 47.0412C40.5609 47.0412 40.1577 47.1273 39.8858 47.2995C39.614 47.4717 39.4781 47.709 39.4781 48.0114C39.4781 48.2162 39.5279 48.3907 39.6276 48.5349C39.7318 48.6791 39.8972 48.8164 40.1237 48.9467C40.3502 49.077 40.7852 49.2654 41.4285 49.5121C42.312 49.8424 42.9078 50.1751 43.2159 50.5102C43.5285 50.8452 43.6848 51.2663 43.6848 51.7735Z" fill="black"/>
<path d="M47.9323 53.0438C48.1317 53.0438 48.3242 53.0298 48.51 53.0019C48.6958 52.9693 48.843 52.9368 48.9517 52.9042V53.7906C48.8294 53.8511 48.6482 53.9 48.4081 53.9372C48.1725 53.9791 47.9595 54 47.7692 54C46.3285 54 45.6081 53.2206 45.6081 51.6618V47.111H44.5411V46.5527L45.6081 46.0711L46.0838 44.4378H46.7362V46.2107H48.8974V47.111H46.7362V51.6129C46.7362 52.0736 46.8427 52.4272 47.0556 52.6739C47.2686 52.9205 47.5608 53.0438 47.9323 53.0438Z" fill="black"/>
<path d="M55.0274 53.8604L54.8031 52.7716H54.7487C54.3772 53.2508 54.0057 53.5766 53.6342 53.7487C53.2672 53.9162 52.8073 54 52.2546 54C51.5161 54 50.9362 53.8046 50.5148 53.4137C50.098 53.0228 49.8896 52.4668 49.8896 51.7456C49.8896 50.2007 51.0925 49.3911 53.4983 49.3166L54.7623 49.2747V48.8001C54.7623 48.1999 54.6355 47.7578 54.3818 47.474C54.1326 47.1855 53.7316 47.0412 53.1789 47.0412C52.5582 47.0412 51.8559 47.2367 51.0721 47.6275L50.7255 46.7411C51.0925 46.5364 51.4935 46.3758 51.9284 46.2595C52.3679 46.1432 52.8073 46.085 53.2468 46.085C54.1348 46.085 54.7918 46.2874 55.2177 46.6923C55.6481 47.0971 55.8633 47.7462 55.8633 48.6396V53.8604H55.0274ZM52.4789 53.0438C53.1811 53.0438 53.7316 52.846 54.1303 52.4505C54.5335 52.055 54.7352 51.5013 54.7352 50.7893V50.0984L53.607 50.1472C52.7099 50.1798 52.062 50.324 51.6633 50.5799C51.2692 50.8312 51.0721 51.2244 51.0721 51.7595C51.0721 52.1783 51.1944 52.497 51.4391 52.7157C51.6883 52.9344 52.0349 53.0438 52.4789 53.0438Z" fill="black"/>
<path d="M60.6001 53.0438C60.7995 53.0438 60.992 53.0298 61.1778 53.0019C61.3635 52.9693 61.5108 52.9368 61.6195 52.9042V53.7906C61.4972 53.8511 61.316 53.9 61.0758 53.9372C60.8402 53.9791 60.6273 54 60.437 54C58.9963 54 58.2759 53.2206 58.2759 51.6618V47.111H57.2089V46.5527L58.2759 46.0711L58.7516 44.4378H59.404V46.2107H61.5652V47.111H59.404V51.6129C59.404 52.0736 59.5105 52.4272 59.7234 52.6739C59.9364 52.9205 60.2286 53.0438 60.6001 53.0438Z" fill="black"/>
<path d="M66.2612 54C65.1602 54 64.2904 53.6557 63.6515 52.967C63.0172 52.2783 62.7001 51.3221 62.7001 50.0984C62.7001 48.8653 62.9946 47.8858 63.5836 47.1599C64.1771 46.434 64.9722 46.0711 65.969 46.0711C66.9023 46.0711 67.6408 46.3875 68.1845 47.0203C68.7282 47.6485 69 48.4791 69 49.5121V50.2449H63.869C63.8917 51.143 64.1114 51.8247 64.5282 52.29C64.9496 52.7553 65.5408 52.9879 66.302 52.9879C67.1039 52.9879 67.8968 52.8158 68.6806 52.4714V53.5044C68.2819 53.6813 67.9036 53.8069 67.5457 53.8813C67.1923 53.9604 66.7641 54 66.2612 54ZM65.9554 47.0412C65.3573 47.0412 64.8793 47.2413 64.5214 47.6415C64.168 48.0417 63.9596 48.5954 63.8962 49.3027H67.7903C67.7903 48.5721 67.6317 48.0137 67.3146 47.6275C66.9974 47.2367 66.5444 47.0412 65.9554 47.0412Z" fill="black"/>
</svg>
